<svg width="35" height="34" viewBox="0 0 35 34" fill="none" xmlns="http://www.w3.org/2000/svg">
<path d="M12.2654 10.332V9.23203H10.0654V10.332H12.2654ZM10.0654 31.9987V33.0987H12.2654V31.9987H10.0654ZM2 9.23398C1.39249 9.23398 0.9 9.72647 0.9 10.334C0.9 10.9415 1.39249 11.434 2 11.434V9.23398ZM33.6667 11.434C34.2742 11.434 34.7667 10.9415 34.7667 10.334C34.7667 9.72647 34.2742 9.23398 33.6667 9.23398V11.434ZM30.3333 30.9H5.33333V33.1H30.3333V30.9ZM5.33333 30.9C4.09918 30.9 3.1 29.9008 3.1 28.6667H0.9C0.9 31.1158 2.88415 33.1 5.33333 33.1V30.9ZM3.1 28.6667V5.33333H0.9V28.6667H3.1ZM3.1 5.33333C3.1 4.09918 4.09918 3.1 5.33333 3.1V0.9C2.88415 0.9 0.9 2.88415 0.9 5.33333H3.1ZM5.33333 3.1H30.3333V0.9H5.33333V3.1ZM30.3333 3.1C31.5675 3.1 32.5667 4.09918 32.5667 5.33333H34.7667C34.7667 2.88415 32.7825 0.9 30.3333 0.9V3.1ZM32.5667 5.33333V28.6667H34.7667V5.33333H32.5667ZM32.5667 28.6667C32.5667 29.9008 31.5675 30.9 30.3333 30.9V33.1C32.7825 33.1 34.7667 31.1158 34.7667 28.6667H32.5667ZM10.0654 10.332V31.9987H12.2654V10.332H10.0654ZM2 11.434H33.6667V9.23398H2V11.434Z" fill="url(#paint0_linear_813_134)"/>
<defs>
<linearGradient id="paint0_linear_813_134" x1="2" y1="2" x2="34" y2="32" gradientUnits="userSpaceOnUse">
<stop stop-color="#F8F8F8"/>
<stop offset="1" stop-color="#484849"/>
</linearGradient>
</defs>
</svg>
