<svg width="58" height="58" viewBox="0 0 58 58" fill="none" xmlns="http://www.w3.org/2000/svg">
<path d="M25.473 2.31637C26.6158 -0.772121 30.9842 -0.772125 32.127 2.31637L37.8153 17.6888C38.1746 18.6598 38.9402 19.4254 39.9112 19.7847L55.2836 25.473C58.3721 26.6158 58.3721 30.9842 55.2836 32.127L39.9112 37.8153C38.9402 38.1746 38.1746 38.9402 37.8153 39.9112L32.127 55.2836C30.9842 58.3721 26.6158 58.3721 25.473 55.2836L19.7847 39.9112C19.4254 38.9402 18.6598 38.1746 17.6888 37.8153L2.31637 32.127C-0.772121 30.9842 -0.772125 26.6158 2.31637 25.473L17.6888 19.7847C18.6598 19.4254 19.4254 18.6598 19.7847 17.6888L25.473 2.31637Z" fill="url(#paint0_linear_881_127)"/>
<defs>
<linearGradient id="paint0_linear_881_127" x1="28.8" y1="0" x2="58" y2="58" gradientUnits="userSpaceOnUse">
<stop stop-color="white"/>
<stop offset="1" stop-color="#878585"/>
</linearGradient>
</defs>
</svg>
