<svg width="30" height="30" viewBox="0 0 30 30" fill="none" xmlns="http://www.w3.org/2000/svg">
<path opacity="0.4" d="M20.0943 2.5H24.3268C26.0796 2.5 27.4999 3.93231 27.4999 5.69995V9.96816C27.4999 11.7358 26.0796 13.1681 24.3268 13.1681H20.0943C18.3415 13.1681 16.9211 11.7358 16.9211 9.96816V5.69995C16.9211 3.93231 18.3415 2.5 20.0943 2.5Z" fill="white"/>
<path fill-rule="evenodd" clip-rule="evenodd" d="M5.67316 2.5H9.90561C11.6584 2.5 13.0788 3.93231 13.0788 5.69995V9.96816C13.0788 11.7358 11.6584 13.1681 9.90561 13.1681H5.67316C3.92032 13.1681 2.5 11.7358 2.5 9.96816V5.69995C2.5 3.93231 3.92032 2.5 5.67316 2.5ZM5.67316 16.8319H9.90561C11.6584 16.8319 13.0788 18.2642 13.0788 20.0318V24.3C13.0788 26.0665 11.6584 27.5 9.90561 27.5H5.67316C3.92032 27.5 2.5 26.0665 2.5 24.3V20.0318C2.5 18.2642 3.92032 16.8319 5.67316 16.8319ZM24.3268 16.8319H20.0944C18.3415 16.8319 16.9212 18.2642 16.9212 20.0318V24.3C16.9212 26.0665 18.3415 27.5 20.0944 27.5H24.3268C26.0797 27.5 27.5 26.0665 27.5 24.3V20.0318C27.5 18.2642 26.0797 16.8319 24.3268 16.8319Z" fill="white"/>
</svg>
