<svg width="19" height="19" viewBox="0 0 19 19" fill="none" xmlns="http://www.w3.org/2000/svg">
<path opacity="0.4" d="M9.15631 13.4409C11.4924 13.4409 13.3656 11.5569 13.3656 9.20736C13.3656 6.85691 11.4924 4.97385 9.15631 4.97385C6.8202 4.97385 4.94702 6.85691 4.94702 9.20736C4.94702 11.5569 6.8202 13.4409 9.15631 13.4409" fill="white"/>
<path opacity="0.4" d="M18.2952 10.1931C18.8996 7.81564 17.1276 5.68042 14.8712 5.68042C14.6259 5.68042 14.3913 5.70744 14.162 5.75336C14.1316 5.76057 14.0976 5.77588 14.0797 5.8029C14.0591 5.83712 14.0743 5.88305 14.0967 5.91276C14.7745 6.86915 15.164 8.03357 15.164 9.28354C15.164 10.4813 14.8067 11.598 14.1799 12.5246C14.1155 12.6201 14.1728 12.7489 14.2865 12.7687C14.4441 12.7966 14.6053 12.811 14.77 12.8155C16.4131 12.8588 17.8878 11.7952 18.2952 10.1931" fill="white"/>
<path opacity="0.4" d="M4.25211 5.75364C4.02378 5.70681 3.78829 5.68069 3.54295 5.68069C1.28653 5.68069 -0.485469 7.81591 0.119824 10.1934C0.526336 11.7955 2.00106 12.859 3.64413 12.8158C3.80888 12.8113 3.97095 12.796 4.12765 12.769C4.24136 12.7492 4.29867 12.6204 4.2342 12.5249C3.60742 11.5973 3.25015 10.4816 3.25015 9.28382C3.25015 8.03295 3.64055 6.86853 4.31837 5.91304C4.33986 5.88332 4.35597 5.83739 4.33448 5.80317C4.31658 5.77525 4.28345 5.76084 4.25211 5.75364" fill="white"/>
<path d="M13.4409 9.25842C13.4409 6.92232 11.5569 5.04914 9.20739 5.04914C6.85694 5.04914 4.97388 6.92232 4.97388 9.25842C4.97388 11.5945 6.85694 13.4677 9.20739 13.4677C11.5569 13.4677 13.4409 11.5945 13.4409 9.25842" fill="white"/>
<path opacity="0.4" d="M10.1931 0.119514C7.81564 -0.484882 5.68042 1.28712 5.68042 3.54353C5.68042 3.78887 5.70744 4.02347 5.75336 4.25269C5.76057 4.28314 5.77588 4.31716 5.8029 4.33507C5.83712 4.35566 5.88305 4.34044 5.91276 4.31806C6.86915 3.64024 8.03357 3.25074 9.28354 3.25074C10.4813 3.25074 11.598 3.608 12.5246 4.23479C12.6201 4.29925 12.7489 4.24195 12.7687 4.12823C12.7966 3.97064 12.811 3.80947 12.8155 3.64471C12.8588 2.00165 11.7952 0.526922 10.1931 0.119514" fill="white"/>
<path opacity="0.4" d="M5.75361 14.1626C5.70678 14.391 5.68066 14.6264 5.68066 14.8718C5.68066 17.1282 7.81588 18.9002 10.1934 18.2949C11.7954 17.8884 12.859 16.4137 12.8158 14.7706C12.8113 14.6059 12.796 14.4438 12.7689 14.2871C12.7491 14.1734 12.6203 14.1161 12.5249 14.1805C11.5973 14.8073 10.4815 15.1646 9.28379 15.1646C8.03292 15.1646 6.8685 14.7742 5.91301 14.0964C5.88329 14.0749 5.83736 14.0588 5.80314 14.0802C5.77522 14.0982 5.76081 14.1313 5.75361 14.1626" fill="white"/>
</svg>
