<svg width="20" height="20" viewBox="0 0 20 20" fill="none" xmlns="http://www.w3.org/2000/svg">
<path d="M7.5 15.4167H12.5M7.5 15.4167C5.88917 15.4167 4.58333 14.1108 4.58333 12.5M7.5 15.4167L7.5 17.5M4.58333 12.5V7.5M4.58333 12.5H2.5M15.4167 12.5V7.5M15.4167 12.5C15.4167 14.1108 14.1108 15.4167 12.5 15.4167M15.4167 12.5L17.5 12.5M12.5 15.4167V17.5M12.5 4.58333H7.5M12.5 4.58333C14.1108 4.58333 15.4167 5.88917 15.4167 7.5M12.5 4.58333L12.5 2.5M15.4167 7.5L17.5 7.5M7.5 4.58333C5.88917 4.58333 4.58333 5.88917 4.58333 7.5M7.5 4.58333L7.5 2.5M4.58333 7.5L2.5 7.5M17.5 10H15.4167M4.58333 10H2.5M10 2.5V4.58333M10 15.4167V17.5M8.75 12.5H11.25C11.9404 12.5 12.5 11.9404 12.5 11.25V8.75C12.5 8.05964 11.9404 7.5 11.25 7.5H8.75C8.05964 7.5 7.5 8.05964 7.5 8.75V11.25C7.5 11.9404 8.05964 12.5 8.75 12.5Z" stroke="white" stroke-linecap="round" stroke-linejoin="round"/>
</svg>
