<svg width="24" height="24" viewBox="0 0 24 24" fill="none" xmlns="http://www.w3.org/2000/svg">
<path d="M18 9.5999H20.4C21.0628 9.5999 21.6 10.1372 21.6 10.7999L21.6 19.5999C21.6 20.7045 20.7046 21.5999 19.6 21.5999L10.8 21.5999C10.1373 21.5999 9.60003 21.0626 9.60003 20.3999V17.9999M12 2.3999L4.80003 2.3999C3.47454 2.3999 2.40003 3.47442 2.40003 4.7999L2.40002 11.9999C2.40002 13.3254 3.47454 14.3999 4.80002 14.3999L12 14.3999C13.3255 14.3999 14.4 13.3254 14.4 11.9999L14.4 4.7999C14.4 3.47442 13.3255 2.3999 12 2.3999Z" stroke="white" stroke-width="2" stroke-linecap="round"/>
</svg>
