<svg width="88" height="88" viewBox="0 0 88 88" fill="none" xmlns="http://www.w3.org/2000/svg">
<path opacity="0.4" d="M17.3164 77.6135C17.2687 77.6135 17.2247 77.6135 17.1734 77.6098C16.0184 77.5511 14.8854 77.3018 13.8074 76.8655C8.50171 74.7095 5.94237 68.6485 8.09471 63.3465L34.9384 16.3178C35.8624 14.6458 37.263 13.2451 38.9717 12.2991C43.9767 9.52715 50.3054 11.3495 53.0737 16.3508L79.7414 63.0201C80.3354 64.4171 80.5884 65.5538 80.6507 66.7125C80.7937 69.4845 79.8477 72.1428 77.9924 74.1998C76.137 76.2568 73.5887 77.4705 70.8204 77.6098L17.5804 77.6135H17.3164Z" fill="white"/>
<path fill-rule="evenodd" clip-rule="evenodd" d="M40.79 36.743C40.79 34.9757 42.231 33.5347 43.9984 33.5347C45.7657 33.5347 47.2067 34.9757 47.2067 36.743V47.1123C47.2067 48.8833 45.7657 50.3207 43.9984 50.3207C42.231 50.3207 40.79 48.8833 40.79 47.1123V36.743ZM40.79 59.6564C40.79 57.878 42.231 56.4297 43.9984 56.4297C45.7657 56.4297 47.2067 57.8597 47.2067 59.616C47.2067 61.4237 45.7657 62.8647 43.9984 62.8647C42.231 62.8647 40.79 61.4237 40.79 59.6564Z" fill="white"/>
</svg>
