<svg width="20" height="20" viewBox="0 0 20 20" fill="none" xmlns="http://www.w3.org/2000/svg">
<path d="M16.875 6.25C16.875 8.32107 13.797 10 10 10C6.20304 10 3.125 8.32107 3.125 6.25M16.875 6.25C16.875 4.17893 13.797 2.5 10 2.5C6.20304 2.5 3.125 4.17893 3.125 6.25M16.875 6.25V10M3.125 6.25V10M3.125 10C3.125 12.0703 6.20313 13.75 10 13.75C13.7969 13.75 16.875 12.0703 16.875 10M3.125 10V13.75C3.125 15.8203 6.20313 17.5 10 17.5C13.7969 17.5 16.875 15.8203 16.875 13.75V10" stroke="white" stroke-width="1.25" stroke-linecap="round" stroke-linejoin="round"/>
</svg>
