<svg width="24" height="24" viewBox="0 0 24 24" fill="none" xmlns="http://www.w3.org/2000/svg">
<path opacity="0.4" d="M16.6643 21.9897H7.33488C5.88835 22.0796 4.46781 21.5781 3.3989 20.6011C2.4219 19.5312 1.92041 18.1107 2.01032 16.6652V7.33482C1.92041 5.88932 2.4209 4.46878 3.3979 3.39889C4.46781 2.42189 5.88835 1.92041 7.33488 2.01032H16.6643C18.1089 1.92041 19.5284 2.4209 20.5973 3.39789C21.5733 4.46878 22.0758 5.88832 21.9899 7.33482V16.6652C22.0788 18.1107 21.5783 19.5312 20.6013 20.6011C19.5314 21.5781 18.1109 22.0796 16.6643 21.9897Z" fill="white"/>
<path d="M17.0545 10.3976L10.5018 16.9829C10.161 17.3146 9.7131 17.5 9.24574 17.5H6.95762C6.83105 17.5 6.71421 17.4512 6.62658 17.3634C6.53895 17.2756 6.5 17.1585 6.5 17.0317L6.55842 14.7195C6.56816 14.261 6.75315 13.8317 7.07446 13.5098L11.7189 8.8561C11.7967 8.77805 11.9331 8.77805 12.011 8.8561L13.6399 10.4785C13.747 10.5849 13.9028 10.6541 14.0683 10.6541C14.4286 10.6541 14.7109 10.3615 14.7109 10.0102C14.7109 9.83463 14.6428 9.67854 14.5357 9.56146C14.5065 9.52244 12.9554 7.97805 12.9554 7.97805C12.858 7.88049 12.858 7.71463 12.9554 7.61707L13.6078 6.95366C14.2114 6.34878 15.1851 6.34878 15.7888 6.95366L17.0545 8.22195C17.6485 8.81707 17.6485 9.79268 17.0545 10.3976Z" fill="white"/>
</svg>
