<svg width="16" height="18" viewBox="0 0 16 18" fill="none" xmlns="http://www.w3.org/2000/svg">
<path d="M10.6484 4.72656L6.10156 7.64844M6.10156 10.3516L10.6484 13.2734M6.5 9C6.5 10.3807 5.38071 11.5 4 11.5C2.61929 11.5 1.5 10.3807 1.5 9C1.5 7.61929 2.61929 6.5 4 6.5C5.38071 6.5 6.5 7.61929 6.5 9ZM15.25 14.625C15.25 16.0057 14.1307 17.125 12.75 17.125C11.3693 17.125 10.25 16.0057 10.25 14.625C10.25 13.2443 11.3693 12.125 12.75 12.125C14.1307 12.125 15.25 13.2443 15.25 14.625ZM15.25 3.375C15.25 4.75571 14.1307 5.875 12.75 5.875C11.3693 5.875 10.25 4.75571 10.25 3.375C10.25 1.99429 11.3693 0.875 12.75 0.875C14.1307 0.875 15.25 1.99429 15.25 3.375Z" stroke="white" stroke-width="1.25" stroke-linecap="round" stroke-linejoin="round"/>
</svg>
