<svg width="16" height="18" viewBox="0 0 16 18" fill="none" xmlns="http://www.w3.org/2000/svg">
<path d="M10.1484 4.85156L5.60156 7.77344M5.60156 10.4766L10.1484 13.3984M6 9.125C6 10.5057 4.88071 11.625 3.5 11.625C2.11929 11.625 1 10.5057 1 9.125C1 7.74429 2.11929 6.625 3.5 6.625C4.88071 6.625 6 7.74429 6 9.125ZM14.75 14.75C14.75 16.1307 13.6307 17.25 12.25 17.25C10.8693 17.25 9.75 16.1307 9.75 14.75C9.75 13.3693 10.8693 12.25 12.25 12.25C13.6307 12.25 14.75 13.3693 14.75 14.75ZM14.75 3.5C14.75 4.88071 13.6307 6 12.25 6C10.8693 6 9.75 4.88071 9.75 3.5C9.75 2.11929 10.8693 1 12.25 1C13.6307 1 14.75 2.11929 14.75 3.5Z" stroke="url(#paint0_linear_851_147)" stroke-width="1.25" stroke-linecap="round" stroke-linejoin="round"/>
<defs>
<linearGradient id="paint0_linear_851_147" x1="1" y1="1" x2="18" y2="18.5" gradientUnits="userSpaceOnUse">
<stop stop-color="#F8F8F8"/>
<stop offset="1" stop-color="#464646"/>
</linearGradient>
</defs>
</svg>
