<svg width="24" height="24" viewBox="0 0 24 24" fill="none" xmlns="http://www.w3.org/2000/svg">
<path d="M9.06657 20.1699C9.61886 20.1699 10.0666 19.7222 10.0666 19.1699C10.0666 18.6177 9.61886 18.1699 9.06657 18.1699V20.1699ZM4.26715 15.9701L3.26715 15.9701L4.26715 15.9701ZM5.26657 2.39986C5.26655 1.84757 4.81881 1.39988 4.26653 1.3999C3.71424 1.39993 3.26655 1.84766 3.26657 2.39995L5.26657 2.39986ZM9.06657 8.31677C9.61886 8.31677 10.0666 7.86906 10.0666 7.31677C10.0666 6.76449 9.61886 6.31677 9.06657 6.31677V8.31677ZM18.6666 9.86657L18.6666 8.86657L18.6666 9.86657ZM13.8666 9.86655L13.8666 10.8665H13.8666L13.8666 9.86655ZM19.7334 2.3999L20.7334 2.39992C20.7334 2.1347 20.6281 1.88034 20.4405 1.6928C20.253 1.50526 19.9986 1.3999 19.7334 1.3999V2.3999ZM19.7333 8.79993L20.7333 8.79995V8.79995L19.7333 8.79993ZM12.7999 8.79987L11.7999 8.79987V8.79987L12.7999 8.79987ZM12.7999 4.53324L12.1356 3.78583C11.9221 3.9756 11.7999 4.2476 11.7999 4.53323L12.7999 4.53324ZM15.1999 2.3999V1.3999C14.955 1.3999 14.7186 1.48978 14.5355 1.6525L15.1999 2.3999ZM18.6666 21.5999L18.6666 20.5999L18.6666 21.5999ZM13.8666 21.5999L13.8666 22.5999L13.8666 21.5999ZM19.7334 14.1332L20.7334 14.1333C20.7334 13.868 20.6281 13.6137 20.4405 13.4261C20.253 13.2386 19.9986 13.1332 19.7334 13.1332V14.1332ZM19.7333 20.5333L20.7333 20.5333V20.5333L19.7333 20.5333ZM12.7999 20.5332L11.7999 20.5332V20.5332L12.7999 20.5332ZM12.7999 16.2666L12.1356 15.5192C11.9221 15.7089 11.7999 15.9809 11.7999 16.2666L12.7999 16.2666ZM15.1999 14.1332V13.1332C14.955 13.1332 14.7186 13.2231 14.5355 13.3858L15.1999 14.1332ZM9.06657 18.1699H7.46715V20.1699H9.06657V18.1699ZM5.26715 15.97L5.26678 7.31673L3.26678 7.31681L3.26715 15.9701L5.26715 15.97ZM5.26678 7.31673L5.26657 2.39986L3.26657 2.39995L3.26678 7.31681L5.26678 7.31673ZM9.06657 6.31677H4.26678V8.31677H9.06657V6.31677ZM7.46715 18.1699C6.25216 18.1699 5.26721 17.185 5.26715 15.97L3.26715 15.9701C3.26725 18.2896 5.14763 20.1699 7.46715 20.1699V18.1699ZM18.6666 8.86657L13.8666 8.86655L13.8666 10.8665L18.6666 10.8666L18.6666 8.86657ZM18.7334 2.39988L18.7333 8.79991L20.7333 8.79995L20.7334 2.39992L18.7334 2.39988ZM18.6666 10.8666C19.808 10.8666 20.7332 9.94132 20.7333 8.79995L18.7333 8.7999C18.7333 8.83672 18.7034 8.86657 18.6666 8.86657L18.6666 10.8666ZM11.7999 8.79987C11.7999 9.94126 12.7252 10.8665 13.8666 10.8665L13.8666 8.86655C13.8298 8.86655 13.7999 8.8367 13.7999 8.79988L11.7999 8.79987ZM13.7999 8.79988L13.7999 4.53324L11.7999 4.53323L11.7999 8.79987L13.7999 8.79988ZM15.1999 3.3999H19.7334V1.3999H15.1999V3.3999ZM14.5355 1.6525L12.1356 3.78583L13.4643 5.28064L15.8643 3.14731L14.5355 1.6525ZM18.6666 20.5999L13.8666 20.5999L13.8666 22.5999L18.6666 22.5999L18.6666 20.5999ZM18.7334 14.1332L18.7333 20.5332L20.7333 20.5333L20.7334 14.1333L18.7334 14.1332ZM18.6666 22.5999C19.808 22.5999 20.7332 21.6747 20.7333 20.5333L18.7333 20.5332C18.7333 20.5701 18.7034 20.5999 18.6666 20.5999L18.6666 22.5999ZM11.7999 20.5332C11.7999 21.6746 12.7252 22.5999 13.8666 22.5999L13.8666 20.5999C13.8297 20.5999 13.7999 20.57 13.7999 20.5332L11.7999 20.5332ZM13.7999 20.5332L13.7999 16.2666L11.7999 16.2666L11.7999 20.5332L13.7999 20.5332ZM15.1999 15.1332H19.7334V13.1332H15.1999V15.1332ZM14.5355 13.3858L12.1356 15.5192L13.4643 17.014L15.8643 14.8806L14.5355 13.3858Z" fill="white"/>
</svg>
