<svg width="10" height="11" viewBox="0 0 10 11" fill="none" xmlns="http://www.w3.org/2000/svg">
<path d="M3.48273 9.26096C3.70365 9.26096 3.88273 9.08187 3.88273 8.86096C3.88273 8.64004 3.70365 8.46096 3.48273 8.46096V9.26096ZM1.0003 7.36102L0.600301 7.36104L1.0003 7.36102ZM1.4 0.999981C1.39999 0.779067 1.22089 0.59999 0.999981 0.6C0.779067 0.60001 0.59999 0.779105 0.6 1.00002L1.4 0.999981ZM3.48273 3.70478C3.70365 3.70478 3.88273 3.5257 3.88273 3.30478C3.88273 3.08387 3.70365 2.90478 3.48273 2.90478V3.70478ZM8.44821 4.5L8.44821 4.1H8.44821L8.44821 4.5ZM5.96546 4.49999L5.96546 4.89999H5.96546L5.96546 4.49999ZM9 1L9.4 1.00001C9.4 0.893921 9.35786 0.792177 9.28285 0.717161C9.20783 0.642144 9.10609 0.6 9 0.6V1ZM8.99993 4.00001L9.39993 4.00002V4.00002L8.99993 4.00001ZM5.41375 3.99999L5.01375 3.99998V3.99998L5.41375 3.99999ZM5.41376 2L5.16283 1.6885C5.06857 1.76443 5.01376 1.87896 5.01376 2L5.41376 2ZM6.65511 1V0.6C6.56382 0.6 6.47527 0.631229 6.40418 0.688501L6.65511 1ZM8.44821 10L8.44821 9.6L8.44821 10ZM5.96546 9.99999L5.96546 10.4L5.96546 9.99999ZM9 6.5L9.4 6.50001C9.4 6.39392 9.35786 6.29218 9.28285 6.21716C9.20783 6.14214 9.10609 6.1 9 6.1V6.5ZM8.99993 9.50001L9.39993 9.50002V9.50002L8.99993 9.50001ZM5.41375 9.49999L5.01375 9.49998V9.49998L5.41375 9.49999ZM5.41376 7.5L5.16283 7.1885C5.06857 7.26443 5.01376 7.37896 5.01376 7.5L5.41376 7.5ZM6.65511 6.5V6.1C6.56382 6.1 6.47527 6.13123 6.40418 6.1885L6.65511 6.5ZM3.48273 8.46096H2.65546V9.26096H3.48273V8.46096ZM1.4003 7.361L1.40011 3.30476L0.600109 3.3048L0.600301 7.36104L1.4003 7.361ZM1.40011 3.30476L1.4 0.999981L0.6 1.00002L0.600109 3.3048L1.40011 3.30476ZM3.48273 2.90478H1.00011V3.70478H3.48273V2.90478ZM2.65546 8.46096C1.92432 8.46096 1.40033 7.93237 1.4003 7.361L0.600301 7.36104C0.600353 8.44648 1.55841 9.26096 2.65546 9.26096V8.46096ZM8.44821 4.1L5.96546 4.09999L5.96546 4.89999L8.4482 4.9L8.44821 4.1ZM8.6 0.99999L8.59993 4L9.39993 4.00002L9.4 1.00001L8.6 0.99999ZM8.4482 4.9C8.93586 4.9 9.39991 4.53321 9.39993 4.00002L8.59993 4C8.59993 4.01409 8.59447 4.03474 8.56972 4.05716C8.54434 4.08017 8.50247 4.1 8.44821 4.1L8.4482 4.9ZM5.01375 3.99998C5.01374 4.53318 5.4778 4.89999 5.96546 4.89999L5.96546 4.09999C5.9112 4.09999 5.86933 4.08016 5.84395 4.05715C5.81921 4.03473 5.81375 4.01408 5.81375 3.99999L5.01375 3.99998ZM5.81375 3.99999L5.81376 2L5.01376 2L5.01375 3.99998L5.81375 3.99999ZM6.65511 1.4H9V0.6H6.65511V1.4ZM6.40418 0.688501L5.16283 1.6885L5.6647 2.3115L6.90605 1.3115L6.40418 0.688501ZM8.44821 9.6L5.96546 9.59999L5.96546 10.4L8.4482 10.4L8.44821 9.6ZM8.6 6.49999L8.59993 9.5L9.39993 9.50002L9.4 6.50001L8.6 6.49999ZM8.4482 10.4C8.93586 10.4 9.39991 10.0332 9.39993 9.50002L8.59993 9.5C8.59993 9.51409 8.59447 9.53474 8.56972 9.55716C8.54434 9.58017 8.50247 9.6 8.44821 9.6L8.4482 10.4ZM5.01375 9.49998C5.01374 10.0332 5.4778 10.4 5.96546 10.4L5.96546 9.59999C5.9112 9.59999 5.86933 9.58015 5.84395 9.55715C5.81921 9.53473 5.81375 9.51408 5.81375 9.49999L5.01375 9.49998ZM5.81375 9.49999L5.81376 7.5L5.01376 7.5L5.01375 9.49998L5.81375 9.49999ZM6.65511 6.9H9V6.1H6.65511V6.9ZM6.40418 6.1885L5.16283 7.1885L5.6647 7.8115L6.90605 6.8115L6.40418 6.1885Z" fill="white"/>
</svg>
