<svg width="36" height="36" viewBox="0 0 36 36" fill="none" xmlns="http://www.w3.org/2000/svg">
<path d="M18.2909 34V10.8566M16.5826 9.46825C16.8707 9.53255 17.1743 9.45374 17.3817 9.24746C17.5892 9.04118 17.6683 8.73915 17.6038 8.45275C17.3452 7.40232 16.3926 3.88491 15.4145 2.91224C14.1959 1.70041 12.2126 1.69536 11 2.90119C9.78751 4.10694 9.79242 6.07925 11.0111 7.29116C12.0052 8.27975 15.5263 9.21113 16.5826 9.46825ZM18.5402 8.45267C18.4756 8.73918 18.5548 9.0411 18.7622 9.24738C18.9697 9.45366 19.2734 9.53235 19.5614 9.46817C20.6177 9.21102 24.1548 8.26375 25.1329 7.29108C26.3515 6.07925 26.3566 4.10694 25.144 2.90111C23.9315 1.69536 21.9482 1.70024 20.7295 2.91215C19.7354 3.90074 18.7988 7.40227 18.5402 8.45267ZM3.16364 18.9568H32.8364C33.479 18.9568 34 18.4387 34 17.7996V12.0138C34 11.3747 33.479 10.8566 32.8364 10.8566H3.16364C2.52098 10.8566 2 11.3747 2 12.0138V17.7996C2 18.4387 2.52098 18.9568 3.16364 18.9568ZM31.0909 18.9568V32.8428C31.0909 33.4819 30.5699 34 29.9273 34H6.07273C5.43007 34 4.90909 33.4819 4.90909 32.8428V18.9568H31.0909Z" stroke="url(#paint0_linear_1699_18)" stroke-width="2.4" stroke-linecap="round" stroke-linejoin="round"/>
<defs>
<linearGradient id="paint0_linear_1699_18" x1="14.5" y1="5" x2="33.4613" y2="50.1509" gradientUnits="userSpaceOnUse">
<stop stop-color="#F8F8F8"/>
<stop offset="1" stop-color="#666666" stop-opacity="0"/>
</linearGradient>
</defs>
</svg>
