<svg width="79" height="83" viewBox="0 0 79 83" fill="none" xmlns="http://www.w3.org/2000/svg">
<path fill-rule="evenodd" clip-rule="evenodd" d="M39.5 0C35.9101 0 33 2.91015 33 6.5C33 6.6778 33.0071 6.85392 33.0211 7.02811L11.2394 16.7089C10.0537 15.4461 8.36894 14.6573 6.5 14.6573C2.91015 14.6573 0 17.5674 0 21.1573C0 24.7472 2.91015 27.6573 6.5 27.6573C6.83014 27.6573 7.15454 27.6327 7.47145 27.5852L16.1676 41.5203L6.92321 56.6708C6.7833 56.6618 6.64218 56.6573 6.5 56.6573C2.91015 56.6573 0 59.5674 0 63.1573C0 66.7471 2.91015 69.6573 6.5 69.6573C8.34221 69.6573 10.0054 68.8909 11.1882 67.6596L33.0045 75.9144C33.0015 75.995 33 76.076 33 76.1573C33 79.7471 35.9101 82.6573 39.5 82.6573C43.0899 82.6573 46 79.7471 46 76.1573C46 76.1533 46 76.1494 46 76.1455C45.9999 76.1179 45.9997 76.0904 45.9993 76.063L67.9193 67.7689C69.0943 68.9361 70.7129 69.6573 72.5 69.6573C76.0899 69.6573 79 66.7471 79 63.1573C79 59.5674 76.0899 56.6573 72.5 56.6573C72.3909 56.6573 72.2825 56.66 72.1747 56.6653L62.9473 41.5426L71.647 27.6018C71.9261 27.6384 72.2109 27.6573 72.5 27.6573C76.0899 27.6573 79 24.7472 79 21.1573C79 17.5674 76.0899 14.6573 72.5 14.6573C70.6836 14.6573 69.0412 15.4024 67.8617 16.6035L45.9889 6.8823C45.9963 6.7558 46 6.62834 46 6.5C46 2.91015 43.0899 0 39.5 0ZM12.9475 20.327L34.558 10.7223C34.6355 10.813 34.7154 10.9014 34.7977 10.9876L23.2926 29.8432L12.6962 23.1272C12.8935 22.5058 13 21.844 13 21.1573C13 20.876 12.9821 20.5989 12.9475 20.327ZM26.6717 31.9849L38.3208 12.8933C38.7032 12.9634 39.0973 13 39.5 13C39.9346 13 40.3593 12.9573 40.77 12.876L52.3164 31.7992L43.3937 37.3759C42.2357 36.3089 40.6892 35.6572 38.9904 35.6572C37.4101 35.6572 35.9615 36.2211 34.8349 37.1588L26.6717 31.9849ZM55.7086 29.6791L44.2638 10.9223C44.3569 10.822 44.4469 10.7188 44.5337 10.6128L66.0722 20.1855C66.0246 20.5025 66 20.827 66 21.1573C66 21.8224 66.0999 22.4642 66.2855 23.0685L55.7086 29.6791ZM57.7922 33.0939L67.1575 27.2406L60.6164 37.7224L57.7922 33.0939ZM54.4 35.214L58.2471 41.519L53.5613 49.0276L45.2855 43.7824C45.4192 43.263 45.4904 42.7184 45.4904 42.1572C45.4904 41.714 45.446 41.2813 45.3615 40.863L54.4 35.214ZM43.1415 47.1592L51.4436 52.4212L40.6268 69.7546C40.2608 69.6906 39.8843 69.6573 39.5 69.6573C39.1564 69.6573 38.8191 69.6839 38.49 69.7353L27.456 52.0539L35.0361 47.3164C36.1316 48.1573 37.5026 48.6572 38.9904 48.6572C40.5686 48.6572 42.0155 48.0947 43.1415 47.1592ZM54.8223 54.5626L44.1685 71.6346C44.3631 71.8354 44.5448 72.0487 44.7124 72.2732L66.0812 64.1877C66.0278 63.8521 66 63.5079 66 63.1573C66 62.6721 66.0532 62.1994 66.1539 61.7446L54.8223 54.5626ZM24.064 54.1739L34.9103 71.5546C34.7204 71.744 34.542 71.9451 34.3765 72.1568L12.9398 64.0456C12.9795 63.7552 13 63.4586 13 63.1573C13 62.4987 12.9021 61.863 12.72 61.264L24.064 54.1739ZM21.9464 50.7805L11.0464 57.593L18.5368 45.3169L21.9464 50.7805ZM25.3384 48.6605L20.8678 41.4967L24.5879 35.3999L32.6938 40.5375C32.561 41.0553 32.4904 41.598 32.4904 42.1572C32.4904 42.805 32.5851 43.4306 32.7615 44.021L25.3384 48.6605ZM12.1396 27.5102L21.2088 33.2583L18.4986 37.7001L12.1396 27.5102ZM60.5781 45.3392L68.3816 58.1283C68.3149 58.1829 68.2494 58.2389 68.1849 58.2961L56.94 51.169L60.5781 45.3392Z" fill="white"/>
</svg>
