<svg version="1.1" id="Layer_1" xmlns="http://www.w3.org/2000/svg" xmlns:xlink="http://www.w3.org/1999/xlink" x="0px" y="0px"
	 width="100%" viewBox="0 0 200 200" enable-background="new 0 0 200 200" xml:space="preserve">
<path fill="#E1EB55" opacity="1.000000" stroke="none" 
	d="
M101.000000,201.000000 
	C67.354073,201.000000 34.208145,201.000000 1.031109,201.000000 
	C1.031109,134.395767 1.031109,67.791527 1.031109,1.093641 
	C67.562431,1.093641 134.125046,1.093641 200.843826,1.093641 
	C200.843826,67.666382 200.843826,134.333145 200.843826,201.000000 
	C167.791809,201.000000 134.645905,201.000000 101.000000,201.000000 
M62.711216,131.974060 
	C78.336243,134.902283 90.414047,128.189545 99.755890,118.701469 
	C107.918739,123.210167 114.946938,128.682541 122.908867,131.189850 
	C146.220703,138.531036 168.025192,118.488327 162.997498,95.131706 
	C158.762787,75.458992 135.184311,65.065819 116.553886,74.996025 
	C110.921356,77.998222 105.943024,82.227791 100.569542,85.961502 
	C97.236786,83.296654 93.701416,80.009048 89.727425,77.385971 
	C80.840302,71.519928 71.113907,69.507828 60.702728,72.524307 
	C47.481014,76.355103 38.325142,88.268257 38.161259,101.612381 
	C37.989353,115.610016 46.869514,126.914375 62.711216,131.974060 
z"/>
<path fill="#030401" opacity="1.000000" stroke="none" 
	d="
M62.304436,131.901337 
	C46.869514,126.914375 37.989353,115.610016 38.161259,101.612381 
	C38.325142,88.268257 47.481014,76.355103 60.702728,72.524307 
	C71.113907,69.507828 80.840302,71.519928 89.727425,77.385971 
	C93.701416,80.009048 97.236786,83.296654 100.569542,85.961502 
	C105.943024,82.227791 110.921356,77.998222 116.553886,74.996025 
	C135.184311,65.065819 158.762787,75.458992 162.997498,95.131706 
	C168.025192,118.488327 146.220703,138.531036 122.908867,131.189850 
	C114.946938,128.682541 107.918739,123.210167 99.755890,118.701469 
	C90.414047,128.189545 78.336243,134.902283 62.304436,131.901337 
M138.804184,112.696808 
	C145.058762,107.992989 146.829971,102.079491 143.707397,96.326591 
	C140.617416,90.633736 133.388214,87.668671 126.935295,90.740112 
	C121.606331,93.276573 117.040749,97.416870 112.212875,100.793343 
	C119.345627,112.132149 128.638016,116.201546 138.804184,112.696808 
M84.293167,107.816414 
	C86.010841,105.883865 87.728508,103.951317 90.217514,101.150940 
	C85.096687,97.447762 80.867920,93.643356 75.993286,91.055565 
	C70.047211,87.898964 63.009277,89.850060 59.299061,94.636635 
	C56.122128,98.735222 55.903999,104.368179 58.757915,108.611610 
	C62.172878,113.689262 68.740486,115.772331 75.193657,113.284981 
	C78.232635,112.113625 80.898720,109.974854 84.293167,107.816414 
z"/>
<path fill="#DDE754" opacity="1.000000" stroke="none" 
	d="
M138.436310,112.857315 
	C128.638016,116.201546 119.345627,112.132149 112.212875,100.793343 
	C117.040749,97.416870 121.606331,93.276573 126.935295,90.740112 
	C133.388214,87.668671 140.617416,90.633736 143.707397,96.326591 
	C146.829971,102.079491 145.058762,107.992989 138.436310,112.857315 
z"/>
<path fill="#DEE854" opacity="1.000000" stroke="none" 
	d="
M84.013474,108.045441 
	C80.898720,109.974854 78.232635,112.113625 75.193657,113.284981 
	C68.740486,115.772331 62.172878,113.689262 58.757915,108.611610 
	C55.903999,104.368179 56.122128,98.735222 59.299061,94.636635 
	C63.009277,89.850060 70.047211,87.898964 75.993286,91.055565 
	C80.867920,93.643356 85.096687,97.447762 90.217514,101.150940 
	C87.728508,103.951317 86.010841,105.883865 84.013474,108.045441 
z"/>
</svg>