<svg width="33" height="33" viewBox="0 0 33 33" fill="none" xmlns="http://www.w3.org/2000/svg">
<path d="M16.9042 16.9032V2C19.5158 2.0003 22.0812 2.68676 24.3441 3.99065C26.6067 5.29454 28.4872 7.17009 29.7967 9.42937C31.1065 11.6887 31.7994 14.2525 31.8064 16.8639C31.8134 19.4753 31.1339 22.0426 29.8361 24.3089C28.5384 26.575 26.6679 28.4606 24.4122 29.7762C22.1564 31.0921 19.5945 31.7921 16.9829 31.8062C14.3713 31.8203 11.802 31.1479 9.5321 29.8565C7.26222 28.5651 5.37156 26.7 4.04945 24.448M29.8055 9.45161L4.00287 24.3548M2.24855 19.6355C2.07911 18.7347 1.99592 17.8198 2.00015 16.9032C1.99819 13.821 2.95294 10.8142 4.73267 8.2977C6.51239 5.7812 9.02932 3.87908 11.9362 2.85384V14.0312L2.24855 19.6355Z" stroke="url(#paint0_linear_1298_9)" stroke-width="2.2" stroke-linecap="round" stroke-linejoin="round"/>
<defs>
<linearGradient id="paint0_linear_1298_9" x1="2" y1="2" x2="34.5" y2="39" gradientUnits="userSpaceOnUse">
<stop stop-color="#F8F8F8"/>
<stop offset="1" stop-color="#484849"/>
</linearGradient>
</defs>
</svg>
