<svg width="30" height="30" viewBox="0 0 30 30" fill="none" xmlns="http://www.w3.org/2000/svg">
<path d="M12.6909 6.94442C12.7546 7.07401 12.7967 7.21278 12.8155 7.35544L13.1635 12.5303L13.3363 15.1314C13.3381 15.3988 13.38 15.6646 13.4608 15.9201C13.6695 16.4157 14.1715 16.7307 14.7176 16.7088L23.0392 16.1644C23.3995 16.1585 23.7475 16.2933 24.0065 16.5391C24.2224 16.744 24.3618 17.012 24.4057 17.3002L24.4204 17.4752C24.0761 22.2436 20.5739 26.2208 15.8154 27.2475C11.0569 28.2742 6.17733 26.1054 3.82589 21.9186C3.14798 20.7023 2.72456 19.3653 2.58048 17.9862C2.52029 17.578 2.49378 17.1656 2.50122 16.7532C2.49379 11.6409 6.13434 7.22121 11.2304 6.15572C11.8438 6.06022 12.445 6.38492 12.6909 6.94442Z" fill="white"/>
<path opacity="0.4" d="M16.0875 2.50102C21.7873 2.64603 26.5779 6.74474 27.5 12.2654L27.4912 12.3061L27.466 12.3653L27.4695 12.528C27.4564 12.7434 27.3733 12.9507 27.2299 13.1181C27.0806 13.2925 26.8766 13.4113 26.652 13.4574L26.515 13.4762L16.914 14.0983C16.5946 14.1298 16.2766 14.0268 16.0391 13.8149C15.8412 13.6384 15.7147 13.4001 15.679 13.1433L15.0345 3.55633C15.0233 3.52391 15.0233 3.48877 15.0345 3.45635C15.0433 3.19209 15.1597 2.9423 15.3575 2.76279C15.5554 2.58327 15.8183 2.489 16.0875 2.50102Z" fill="white"/>
</svg>