<svg width="24" height="24" viewBox="0 0 24 24" fill="none" xmlns="http://www.w3.org/2000/svg">
<path opacity="0.4" d="M16.3344 1.9998H7.6654C4.2764 1.9998 2.0004 4.3778 2.0004 7.9168V16.0838C2.0004 19.6218 4.2764 21.9998 7.6654 21.9998H16.3334C19.7224 21.9998 22.0004 19.6218 22.0004 16.0838V7.9168C22.0004 4.3778 19.7234 1.9998 16.3344 1.9998Z" fill="white"/>
<path fill-rule="evenodd" clip-rule="evenodd" d="M11.3142 11.2485H17.0142C17.4242 11.2485 17.7642 11.5885 17.7642 11.9985V13.8485C17.7642 14.2685 17.4242 14.5985 17.0142 14.5985C16.5942 14.5985 16.2642 14.2685 16.2642 13.8485V12.7485H14.9342V13.8485C14.9342 14.2685 14.5942 14.5985 14.1842 14.5985C13.7642 14.5985 13.4342 14.2685 13.4342 13.8485V12.7485H11.3142C10.9942 13.8185 10.0142 14.5985 8.84419 14.5985C7.40419 14.5985 6.23419 13.4385 6.23419 11.9985C6.23419 10.5685 7.40419 9.3985 8.84419 9.3985C10.0142 9.3985 10.9942 10.1785 11.3142 11.2485ZM7.73419 11.9985C7.73419 12.6085 8.23419 13.0985 8.84419 13.0985C9.44419 13.0985 9.94419 12.6085 9.94419 11.9985C9.94419 11.3885 9.44419 10.8985 8.84419 10.8985C8.23419 10.8985 7.73419 11.3885 7.73419 11.9985Z" fill="white"/>
</svg>
