<svg width="12" height="12" viewBox="0 0 12 12" fill="none" xmlns="http://www.w3.org/2000/svg">
<path d="M3.10557 4.73176L1.81633 6.02099C1.33483 6.50249 1.05794 7.15764 1.063 7.84618C1.06806 8.53472 1.33889 9.19386 1.84323 9.68263C2.33197 10.187 2.99126 10.4578 3.67968 10.4629C4.38382 10.468 5.02346 10.2067 5.50498 9.72524L6.79422 8.436M8.44098 6.82074L9.73022 5.5315C10.2117 5.05001 10.4886 4.39486 10.4835 3.70632C10.4785 3.01778 10.2077 2.35864 9.70331 1.86987C9.21468 1.38125 8.55551 1.1104 7.86697 1.10534C7.17843 1.10028 6.5232 1.36145 6.04168 1.84296L4.75244 3.1322M3.81822 7.69682L7.68594 3.82911" stroke="#494B4F" stroke-width="1.2" stroke-linecap="round" stroke-linejoin="round"/>
</svg>
