<svg width="28" height="30" viewBox="0 0 28 30" fill="none" xmlns="http://www.w3.org/2000/svg">
<g clip-path="url(#clip0_4_2)">
<g filter="url(#filter0_d_4_2)">
<path fill-rule="evenodd" clip-rule="evenodd" d="M21.9024 16.58C22.26 16.77 22.536 17.07 22.7301 17.37C23.1083 17.99 23.0776 18.75 22.7097 19.42L21.9943 20.62C21.6162 21.26 20.9111 21.66 20.1855 21.66C19.8278 21.66 19.4292 21.56 19.1022 21.36C18.8365 21.19 18.5299 21.13 18.2029 21.13C17.1911 21.13 16.3429 21.96 16.3122 22.95C16.3122 24.1 15.372 25 14.1968 25H12.8069C11.6215 25 10.6813 24.1 10.6813 22.95C10.6608 21.96 9.81259 21.13 8.80085 21.13C8.4636 21.13 8.15702 21.19 7.90153 21.36C7.5745 21.56 7.16572 21.66 6.81825 21.66C6.08244 21.66 5.37729 21.26 4.99917 20.62L4.29402 19.42C3.91589 18.77 3.89545 17.99 4.27358 17.37C4.43709 17.07 4.74368 16.77 5.09115 16.58C5.37729 16.44 5.56125 16.21 5.73498 15.94C6.24596 15.08 5.93937 13.95 5.07071 13.44C4.05897 12.87 3.73194 11.6 4.31446 10.61L4.99917 9.43C5.5919 8.44 6.85913 8.09 7.88109 8.67C8.77019 9.15 9.92499 8.83 10.4462 7.98C10.6097 7.7 10.7017 7.4 10.6813 7.1C10.6608 6.71 10.7732 6.34 10.9674 6.04C11.3455 5.42 12.0302 5.02 12.7763 5H14.2172C14.9735 5 15.6582 5.42 16.0363 6.04C16.2203 6.34 16.3429 6.71 16.3122 7.1C16.2918 7.4 16.3838 7.7 16.5473 7.98C17.0685 8.83 18.2233 9.15 19.1226 8.67C20.1344 8.09 21.4118 8.44 21.9943 9.43L22.679 10.61C23.2718 11.6 22.9448 12.87 21.9228 13.44C21.0541 13.95 20.7475 15.08 21.2687 15.94C21.4323 16.21 21.6162 16.44 21.9024 16.58ZM10.6097 15.01C10.6097 16.58 11.9076 17.83 13.5121 17.83C15.1166 17.83 16.3838 16.58 16.3838 15.01C16.3838 13.44 15.1166 12.18 13.5121 12.18C11.9076 12.18 10.6097 13.44 10.6097 15.01Z" fill="white"/>
</g>
</g>
<defs>
<filter id="filter0_d_4_2" x="0" y="5" width="27" height="28" filterUnits="userSpaceOnUse" color-interpolation-filters="sRGB">
<feFlood flood-opacity="0" result="BackgroundImageFix"/>
<feColorMatrix in="SourceAlpha" type="matrix" values="0 0 0 0 0 0 0 0 0 0 0 0 0 0 0 0 0 0 127 0" result="hardAlpha"/>
<feOffset dy="4"/>
<feGaussianBlur stdDeviation="2"/>
<feColorMatrix type="matrix" values="0 0 0 0 0 0 0 0 0 0 0 0 0 0 0 0 0 0 0.25 0"/>
<feBlend mode="normal" in2="BackgroundImageFix" result="effect1_dropShadow_4_2"/>
<feBlend mode="normal" in="SourceGraphic" in2="effect1_dropShadow_4_2" result="shape"/>
</filter>
<clipPath id="clip0_4_2">
<rect width="28" height="30" fill="white"/>
</clipPath>
</defs>
</svg>
