<svg width="36" height="36" viewBox="0 0 36 36" fill="none" xmlns="http://www.w3.org/2000/svg">
<path d="M18 26C22.4183 26 26 22.4183 26 18C26 13.5817 22.4183 10 18 10C13.5817 10 10 13.5817 10 18C10 22.4183 13.5817 26 18 26Z" stroke="url(#paint0_linear_1298_13)" stroke-width="2.4" stroke-linecap="round" stroke-linejoin="round"/>
<path d="M26.8766 7.97612C27.2803 8.34796 27.6628 8.73043 28.0241 9.12353L32.3746 9.74503C33.0835 10.9761 33.6298 12.2939 34 13.6654L31.3547 17.1873C31.3547 17.1873 31.4025 18.271 31.3547 18.8128L34 22.3347C33.6316 23.7067 33.0851 25.0247 32.3746 26.2551L28.0241 26.8766C28.0241 26.8766 27.275 27.6575 26.8766 28.0241L26.2551 32.3746C25.0241 33.0835 23.7063 33.6298 22.3347 34L18.8128 31.3547C18.272 31.4025 17.7281 31.4025 17.1873 31.3547L13.6654 34C12.2933 33.6316 10.9753 33.0851 9.74503 32.3746L9.12353 28.0241C8.73043 27.6522 8.34796 27.2697 7.97612 26.8766L3.62549 26.2551C2.91663 25.0241 2.37025 23.7063 2 22.3347L4.64544 18.8128C4.64544 18.8128 4.59762 17.7291 4.64544 17.1873L2 13.6654C2.36854 12.2933 2.91499 10.9753 3.62549 9.74503L7.97612 9.12353C8.34796 8.73043 8.73043 8.34796 9.12353 7.97612L9.74503 3.62549C10.9761 2.91663 12.2939 2.37025 13.6654 2L17.1873 4.64544C17.7281 4.5976 18.272 4.5976 18.8128 4.64544L22.3347 2C23.7067 2.36854 25.0247 2.91499 26.2551 3.62549L26.8766 7.97612Z" stroke="url(#paint1_linear_1298_13)" stroke-width="2.4" stroke-linecap="round" stroke-linejoin="round"/>
<defs>
<linearGradient id="paint0_linear_1298_13" x1="10" y1="6" x2="29" y2="35" gradientUnits="userSpaceOnUse">
<stop stop-color="#F8F8F8"/>
<stop offset="1" stop-color="#484849"/>
</linearGradient>
<linearGradient id="paint1_linear_1298_13" x1="2" y1="2" x2="34" y2="42" gradientUnits="userSpaceOnUse">
<stop stop-color="#F8F8F8"/>
<stop offset="1" stop-color="#484849"/>
</linearGradient>
</defs>
</svg>
