<svg width="28" height="30" viewBox="0 0 28 30" fill="none" xmlns="http://www.w3.org/2000/svg">
<g filter="url(#filter0_d)">
<path fill-rule="evenodd" clip-rule="evenodd" d="M22.4023 13.5801C22.7599 13.7701 23.0359 14.0701 23.23 14.3701C23.6082 14.9901 23.5775 15.7501 23.2096 16.4201L22.4942 17.6201C22.1161 18.2601 21.411 18.6601 20.6854 18.6601C20.3277 18.6601 19.9291 18.5601 19.6021 18.3601C19.3364 18.1901 19.0298 18.1301 18.7028 18.1301C17.691 18.1301 16.8428 18.9601 16.8121 19.9501C16.8121 21.1001 15.8719 22.0001 14.6967 22.0001H13.3068C12.1214 22.0001 11.1812 21.1001 11.1812 19.9501C11.1607 18.9601 10.3125 18.1301 9.30076 18.1301C8.96351 18.1301 8.65693 18.1901 8.40144 18.3601C8.07441 18.5601 7.66563 18.6601 7.31816 18.6601C6.58235 18.6601 5.8772 18.2601 5.49908 17.6201L4.79393 16.4201C4.4158 15.7701 4.39536 14.9901 4.77349 14.3701C4.937 14.0701 5.24359 13.7701 5.59106 13.5801C5.8772 13.4401 6.06116 13.2101 6.23489 12.9401C6.74587 12.0801 6.43928 10.9501 5.57062 10.4401C4.55888 9.87012 4.23185 8.60012 4.81437 7.61012L5.49908 6.43012C6.09181 5.44012 7.35904 5.09012 8.381 5.67012C9.2701 6.15012 10.4249 5.83012 10.9461 4.98012C11.1096 4.70012 11.2016 4.40012 11.1812 4.10012C11.1607 3.71012 11.2731 3.34012 11.4673 3.04012C11.8454 2.42012 12.5301 2.02012 13.2762 2.00012H14.7171C15.4734 2.00012 16.1581 2.42012 16.5362 3.04012C16.7202 3.34012 16.8428 3.71012 16.8121 4.10012C16.7917 4.40012 16.8837 4.70012 17.0472 4.98012C17.5684 5.83012 18.7232 6.15012 19.6225 5.67012C20.6343 5.09012 21.9117 5.44012 22.4942 6.43012L23.1789 7.61012C23.7717 8.60012 23.4447 9.87012 22.4227 10.4401C21.554 10.9501 21.2474 12.0801 21.7686 12.9401C21.9322 13.2101 22.1161 13.4401 22.4023 13.5801ZM11.1096 12.0101C11.1096 13.5801 12.4075 14.8301 14.012 14.8301C15.6165 14.8301 16.8837 13.5801 16.8837 12.0101C16.8837 10.4401 15.6165 9.18012 14.012 9.18012C12.4075 9.18012 11.1096 10.4401 11.1096 12.0101Z" fill="white"/>
</g>
<defs>
<filter id="filter0_d" x="-2" y="0" width="32" height="32" filterUnits="userSpaceOnUse" color-interpolation-filters="sRGB">
<feFlood flood-opacity="0" result="BackgroundImageFix"/>
<feColorMatrix in="SourceAlpha" type="matrix" values="0 0 0 0 0 0 0 0 0 0 0 0 0 0 0 0 0 0 127 0"/>
<feOffset dy="4"/>
<feGaussianBlur stdDeviation="2"/>
<feColorMatrix type="matrix" values="0 0 0 0 0 0 0 0 0 0 0 0 0 0 0 0 0 0 0.25 0"/>
<feBlend mode="normal" in2="BackgroundImageFix" result="effect1_dropShadow"/>
<feBlend mode="normal" in="SourceGraphic" in2="effect1_dropShadow" result="shape"/>
</filter>
</defs>
</svg>
