<svg width="48" height="48" viewBox="0 0 48 48" fill="none" xmlns="http://www.w3.org/2000/svg">
<path d="M8.93789 28.6018C9.33889 27.5181 10.8716 27.5181 11.2726 28.6018L13.2685 33.9957C13.3946 34.3364 13.6632 34.605 14.0039 34.7311L19.3978 36.727C20.4814 37.128 20.4814 38.6607 19.3978 39.0617L14.0039 41.0576C13.6632 41.1837 13.3946 41.4523 13.2685 41.793L11.2726 47.1868C10.8716 48.2705 9.33889 48.2705 8.93789 47.1868L6.942 41.793C6.81592 41.4523 6.5473 41.1837 6.20659 41.0576L0.812762 39.0617C-0.27092 38.6607 -0.270921 37.128 0.812761 36.727L6.20659 34.7311C6.5473 34.605 6.81592 34.3364 6.942 33.9957L8.93789 28.6018Z" fill="#FDFDFD"/>
<path d="M32.5005 13.7484C33.0519 12.2583 35.1594 12.2583 35.7108 13.7484L38.4552 21.1649C38.6285 21.6334 38.9979 22.0028 39.4663 22.1761L46.8829 24.9205C48.3729 25.4718 48.3729 27.5794 46.8829 28.1307L39.4663 30.8751C38.9979 31.0484 38.6285 31.4178 38.4552 31.8863L35.7108 39.3028C35.1594 40.7928 33.0519 40.7929 32.5005 39.3028L29.7562 31.8863C29.5828 31.4178 29.2135 31.0484 28.745 30.8751L21.3285 28.1307C19.8384 27.5794 19.8384 25.4718 21.3285 24.9205L28.745 22.1761C29.2135 22.0028 29.5828 21.6334 29.7562 21.1649L32.5005 13.7484Z" fill="#FDFDFD"/>
<path d="M13.9906 0.812762C14.3916 -0.27092 15.9244 -0.270921 16.3254 0.812761L18.3213 6.20659C18.4473 6.5473 18.716 6.81592 19.0567 6.942L24.4505 8.93789C25.5342 9.33889 25.5342 10.8716 24.4505 11.2726L19.0567 13.2685C18.716 13.3946 18.4473 13.6632 18.3213 14.0039L16.3254 19.3978C15.9244 20.4814 14.3916 20.4814 13.9906 19.3978L11.9947 14.0039C11.8687 13.6632 11.6 13.3946 11.2593 13.2685L5.8655 11.2726C4.78181 10.8716 4.78181 9.33889 5.8655 8.93789L11.2593 6.942C11.6 6.81592 11.8687 6.5473 11.9947 6.20659L13.9906 0.812762Z" fill="#FDFDFD"/>
</svg>
