<svg width="512" height="512" viewBox="0 0 512 512" fill="none" xmlns="http://www.w3.org/2000/svg">
<g clip-path="url(#clip0_306_68)">
<circle cx="256" cy="256" r="256" fill="#AC55FF"/>
<mask id="mask0_306_68" style="mask-type:alpha" maskUnits="userSpaceOnUse" x="0" y="0" width="512" height="512">
<circle cx="256" cy="256" r="256" fill="#AC55FF"/>
</mask>
<g mask="url(#mask0_306_68)">
<path d="M269.699 530.451C360.294 530.451 407.136 502.376 421.276 474.223C422.09 472.599 420.53 470.761 418.81 471.332C402.863 476.607 390.96 466.808 389.625 455.498C389.625 455.498 385.167 407.538 369.22 402.858C370.165 400.913 374.01 385.586 362.126 371.424C365.376 361.406 362.691 354.81 360.26 349.823C363.222 346.191 365.498 341.506 366.482 336.943C366.726 335.861 366.721 334.905 367.598 333.887C373.201 329.231 379.384 325.389 383.145 318.574C389.923 306.26 385.382 292.196 377.167 281.817C376.334 280.671 375.681 280.12 375.622 277.176C375.642 272.145 374.731 266.968 372.027 262.717C370.648 260.557 368.84 258.69 366.945 256.959C359.052 249.598 349.609 244.163 340.542 238.293C339.295 237.494 337.843 236.431 337.302 234.978C334.447 224.351 327.065 216.131 317.886 213.894C317.691 206.776 310.187 195.983 298.835 195.983C295.371 195.983 292.506 197.865 290.718 194.623C286.566 186.75 278.293 185.287 273.976 185.088C273.25 185.053 273.046 184.078 273.704 183.766C275.087 183.103 277.182 182.187 280.291 180.988C295.882 173.524 289.431 131.009 283.049 108.575C280.062 100.199 272.49 76.3803 253.942 74.8057C252.665 74.6985 251.359 74.7277 250.126 75.0836C246.555 76.1122 243.909 78.9738 242.048 82.9372C235.914 95.2709 234.379 128.562 232.123 142.797C228.922 163.096 226.023 184.873 215.913 193.799C211.606 182.436 205.374 177.171 201.969 177.37C199.001 178.068 203.016 183.835 201.306 192.341C200.117 197.236 197.408 201.804 192.794 201.804C179.273 201.804 167.098 134.173 163.463 93.5451C163.365 92.4824 163.263 91.4245 163.068 90.3715C161.285 80.5533 156.12 74.757 150.663 74.757C147.896 74.757 137.961 73.7478 126.584 91.639C118.764 105.591 113.795 120.177 113.312 147.341C113.322 174.714 125.532 193.019 130.477 202.023C150.688 235.266 153.387 246.741 149.562 267.007C145.674 286.653 157.533 297.7 157.533 297.7C155.857 300.298 153.645 307.259 153.134 314.899C152.807 319.764 153.801 328.49 156.125 333.891C151.024 344.885 151.146 353.621 151.146 359.129C151.146 371.892 145.577 377.089 138.336 379.36C140.29 386.322 153.275 390.051 160.788 382.612C158.571 404.476 154.473 424.171 148.753 448.546C145.197 465.233 145.796 474.583 148.49 482.5C149.703 486.069 151.604 489.355 153.928 492.319C181.637 527.667 233.629 530.451 269.699 530.451ZM269.655 482.739C259.671 481.116 250.331 476.139 243.515 468.602C225.351 474.618 206.466 459.33 212.205 439.147C213.121 436.505 217.058 437.475 216.668 440.229C216.103 443.783 216.756 447.42 218.281 450.55C222.34 459.827 234.438 462.323 241.853 455.859C244.596 453.441 248.562 454.362 250.424 457.36C266.663 479.4 300.355 475.266 311.654 450.525C313.311 447.069 314.392 443.408 315.021 439.615C315.464 436.924 319.498 437.178 319.61 439.898C320.522 466.525 295.6 486.902 269.65 482.744L269.655 482.739Z" fill="#240642"/>
<path d="M371.525 292.61C369.79 292.61 367.924 295.033 367.446 298.806C366.414 304.125 366.769 313.958 362.028 313.958C358.749 313.958 358.452 307.367 352.942 301.293C347.226 295.399 339.031 294.799 333.774 290.558C330.851 288.53 329.111 286.034 329.301 281.749C329.301 281.749 329.925 274.924 339.134 276.172C343.514 276.63 350.613 277.698 355.007 278.2C362.857 279.087 364.772 273.247 365.005 271.263C365.507 266.612 360.572 262.761 357.448 260.05C353.502 256.613 349.2 253.527 344.742 250.758C343.933 250.256 343.109 249.735 342.286 249.208C331.104 242.076 311.225 230.137 300.077 243.768C296.082 249.12 294.347 255.287 293.095 260.396C290.781 269.747 285.923 273.354 282.474 279.058C276.992 288.111 273.226 298.392 272.938 308.971C272.89 324.244 282.332 339.205 297.397 348.555C309.9 355.117 316.317 355.117 321.325 353.777C322.241 353.465 324.249 352.065 322.87 349.75C322.621 349.257 321.925 348.175 321.501 347.473C320.073 344.846 322.027 342.442 324.921 344.69C326.826 346.181 328.77 347.673 331.011 348.585C332.897 349.35 335.046 349.652 336.995 349.136C336.995 349.136 336.995 349.136 336.999 349.136C339.28 348.39 340.434 346.893 340.566 344.982C340.698 342.701 339.665 340.936 337.954 339.995C335.353 338.728 329.594 335.559 327.162 333.765C324.419 331.844 321.486 328.973 320.468 327.89C317.15 324.361 316.2 320.914 314.134 320.914C313.788 320.934 313.452 321.129 313.218 321.392C311.922 322.777 311.912 325.058 311.849 326.36C311.805 327.32 311.956 328.783 310.611 328.783C307.278 328.783 307.288 321.831 307.293 319.944C307.293 317.36 308.238 310.657 312.229 310.657C313.461 310.657 315.137 312.31 315.795 312.958C324.59 322.723 334.812 330.318 347.762 330.318C357.677 330.318 365.96 324.717 371.169 319.466C375.247 315.371 377.932 310.243 378.112 304.944C378.224 301.585 376.611 292.615 371.525 292.615V292.61ZM314.714 301.697C313.51 302.365 312.073 301.536 310.762 301.107C308.126 300.24 305.135 301.117 302.962 302.843C301.471 304.032 300.331 305.587 299.405 307.264C298.396 309.097 298.206 311.515 296.038 311.515C294.255 311.515 293.358 309.044 293.163 308.025C292.116 302.492 294.786 296.335 299.751 293.683C304.716 291.031 311.6 292.435 314.811 297.056C315.308 297.773 315.732 298.582 315.79 299.455C315.849 300.327 315.483 301.273 314.718 301.697H314.714Z" fill="white"/>
<path d="M249.386 238.371C244.645 238.44 240.046 240.477 236.694 243.919C234.808 245.854 230.608 252.114 231.017 261.761C230.949 263.18 229.083 263.687 228.333 262.478C225.307 257.057 225.132 251.402 226.306 247.229C228.912 238.795 236.274 231.785 246.224 231.785C259.277 231.785 262.551 240.326 263.204 242.973C263.516 244.07 262.161 244.879 261.328 244.099C259.165 242.086 255.827 238.371 249.376 238.371H249.386Z" fill="white"/>
<path d="M250.453 257.471C247.334 257.749 244.874 255.736 244.596 252.621C244.323 249.559 246.384 247.034 249.503 246.756C252.621 246.478 255.15 248.599 255.422 251.66C255.7 254.78 253.571 257.193 250.458 257.471H250.453Z" fill="white"/>
<path d="M148.261 199.172C143.662 199.172 128.582 174.699 128.582 140.145C128.582 124.638 132.563 108.087 139.798 108.087C144.251 108.087 145.26 117.574 145.465 120.387C147.808 150.066 143.983 170.224 149.567 197.109C149.937 198.684 148.987 199.176 148.261 199.176V199.172Z" fill="white"/>
</g>
</g>
<defs>
<clipPath id="clip0_306_68">
<rect width="512" height="512" fill="white"/>
</clipPath>
</defs>
</svg>
