<svg width="24" height="24" viewBox="0 0 24 24" fill="none" xmlns="http://www.w3.org/2000/svg">
<path d="M7.37851 10.1907L5.14505 12.4242C4.31092 13.2583 3.83124 14.3933 3.84001 15.5861C3.84877 16.7789 4.31796 17.9208 5.19167 18.7675C6.03836 19.6413 7.18048 20.1104 8.3731 20.1192C9.59293 20.1282 10.701 19.6755 11.5352 18.8414L13.7687 16.6079M16.6215 13.8097L18.8549 11.5762C19.6891 10.7421 20.1688 9.60711 20.16 8.4143C20.1512 7.22149 19.682 6.0796 18.8083 5.23287C17.9618 4.38638 16.8199 3.91717 15.6271 3.90841C14.4343 3.89964 13.2992 4.35209 12.465 5.18625L10.2315 7.4197M8.6131 15.3274L15.3135 8.62701" stroke="white" stroke-width="2" stroke-linecap="round" stroke-linejoin="round"/>
</svg>
