<svg width="24" height="24" viewBox="0 0 24 24" fill="none" xmlns="http://www.w3.org/2000/svg">
<path d="M12.0001 7.1999C10.6746 7.1999 9.6001 6.12539 9.6001 4.7999C9.6001 3.47442 10.6746 2.3999 12.0001 2.3999C13.3256 2.3999 14.4001 3.47442 14.4001 4.7999C14.4001 6.12539 13.3256 7.1999 12.0001 7.1999Z" stroke="white" stroke-width="2"/>
<path d="M12.0001 14.3999C10.6746 14.3999 9.6001 13.3254 9.6001 11.9999C9.6001 10.6744 10.6746 9.5999 12.0001 9.5999C13.3256 9.5999 14.4001 10.6744 14.4001 11.9999C14.4001 13.3254 13.3256 14.3999 12.0001 14.3999Z" stroke="white" stroke-width="2"/>
<path d="M12.0001 21.5999C10.6746 21.5999 9.6001 20.5254 9.6001 19.1999C9.6001 17.8744 10.6746 16.7999 12.0001 16.7999C13.3256 16.7999 14.4001 17.8744 14.4001 19.1999C14.4001 20.5254 13.3256 21.5999 12.0001 21.5999Z" stroke="white" stroke-width="2"/>
</svg>
