<svg width="24" height="24" viewBox="0 0 24 24" fill="none" xmlns="http://www.w3.org/2000/svg">
<path opacity="0.4" d="M16.191 2H7.81C4.77 2 3 3.78 3 6.83V17.16C3 20.26 4.77 22 7.81 22H16.191C19.28 22 21 20.26 21 17.16V6.83C21 3.78 19.28 2 16.191 2Z" fill="white"/>
<path fill-rule="evenodd" clip-rule="evenodd" d="M8.07999 6.65V6.66C7.64899 6.66 7.29999 7.01 7.29999 7.44C7.29999 7.87 7.64899 8.22 8.07999 8.22H11.069C11.5 8.22 11.85 7.87 11.85 7.429C11.85 7 11.5 6.65 11.069 6.65H8.07999ZM15.92 12.74H8.07999C7.64899 12.74 7.29999 12.39 7.29999 11.96C7.29999 11.53 7.64899 11.179 8.07999 11.179H15.92C16.35 11.179 16.7 11.53 16.7 11.96C16.7 12.39 16.35 12.74 15.92 12.74ZM15.92 17.31H8.07999C7.77999 17.35 7.48999 17.2 7.32999 16.95C7.16999 16.69 7.16999 16.36 7.32999 16.11C7.48999 15.85 7.77999 15.71 8.07999 15.74H15.92C16.319 15.78 16.62 16.12 16.62 16.53C16.62 16.929 16.319 17.27 15.92 17.31Z" fill="white"/>
</svg>
