<svg width="24" height="24" viewBox="0 0 24 24" fill="none" xmlns="http://www.w3.org/2000/svg">
<path opacity="0.4" d="M16.34 1.9998H7.67C4.28 1.9998 2 4.3798 2 7.9198V16.0898C2 19.6198 4.28 21.9998 7.67 21.9998H16.34C19.73 21.9998 22 19.6198 22 16.0898V7.9198C22 4.3798 19.73 1.9998 16.34 1.9998Z" fill="white"/>
<path fill-rule="evenodd" clip-rule="evenodd" d="M11.1247 8.1893C11.1247 8.6713 11.5157 9.0643 11.9947 9.0643C12.4877 9.0643 12.8797 8.6713 12.8797 8.1893C12.8797 7.7073 12.4877 7.3143 12.0047 7.3143C11.5197 7.3143 11.1247 7.7073 11.1247 8.1893ZM12.8697 11.3621C12.8697 10.8801 12.4767 10.4871 11.9947 10.4871C11.5127 10.4871 11.1197 10.8801 11.1197 11.3621V15.7821C11.1197 16.2641 11.5127 16.6571 11.9947 16.6571C12.4767 16.6571 12.8697 16.2641 12.8697 15.7821V11.3621Z" fill="white"/>
</svg>
