<svg width="18" height="18" viewBox="0 0 18 18" fill="none" xmlns="http://www.w3.org/2000/svg">
<path d="M9.00008 9V1.5C10.3143 1.50015 11.6053 1.84561 12.744 2.50179C13.8826 3.15797 14.8289 4.10183 15.4879 5.23881C16.147 6.3758 16.4957 7.66601 16.4992 8.98019C16.5027 10.2944 16.1608 11.5864 15.5077 12.7269C14.8547 13.8673 13.9134 14.8162 12.7783 15.4783C11.6431 16.1405 10.3539 16.4928 9.03969 16.4999C7.72552 16.507 6.43256 16.1686 5.29031 15.5187C4.14806 14.8688 3.19664 13.9302 2.53133 12.7969M15.4923 5.25L2.50789 12.75M1.62508 10.375C1.53981 9.92168 1.49795 9.46126 1.50008 9C1.49909 7.4489 1.97954 5.93573 2.87514 4.6693C3.77073 3.40288 5.0373 2.44564 6.50008 1.92969V7.55469L1.62508 10.375Z" stroke="white" stroke-width="1.25" stroke-linecap="round" stroke-linejoin="round"/>
</svg>
