<svg width="24" height="24" viewBox="0 0 24 24" fill="none" xmlns="http://www.w3.org/2000/svg">
<path opacity="0.4" d="M22 12.0048C22 17.5137 17.5116 22 12 22C6.48842 22 2 17.5137 2 12.0048C2 6.48625 6.48842 2 12 2C17.5116 2 22 6.48625 22 12.0048Z" fill="white"/>
<path d="M16 12.0049C16 12.2576 15.9205 12.5113 15.7614 12.7145C15.7315 12.7543 15.5923 12.9186 15.483 13.0255L15.4233 13.0838C14.5881 13.9694 12.5099 15.3011 11.456 15.7278C11.456 15.7375 10.8295 15.9913 10.5312 16H10.4915C10.0341 16 9.60653 15.7482 9.38778 15.34C9.26847 15.1154 9.15909 14.4642 9.14915 14.4554C9.05966 13.8712 9 12.9769 9 11.9951C9 10.9657 9.05966 10.0316 9.16903 9.45808C9.16903 9.44836 9.27841 8.92345 9.34801 8.74848C9.45739 8.49672 9.65625 8.2819 9.90483 8.14581C10.1037 8.04957 10.3125 8 10.5312 8C10.7599 8.01069 11.1875 8.15553 11.3565 8.22357C12.4702 8.65128 14.598 10.051 15.4134 10.9064C15.5526 11.0425 15.7017 11.2087 15.7415 11.2467C15.9105 11.4605 16 11.723 16 12.0049Z" fill="white"/>
</svg>
