<?xml version="1.0" encoding="UTF-8"?>
<!DOCTYPE svg PUBLIC "-//W3C//DTD SVG 1.1//EN" "http://www.w3.org/Graphics/SVG/1.1/DTD/svg11.dtd">
<svg xmlns="http://www.w3.org/2000/svg" version="1.1" width="131px" height="131px" style="shape-rendering:geometricPrecision; text-rendering:geometricPrecision; image-rendering:optimizeQuality; fill-rule:evenodd; clip-rule:evenodd" xmlns:xlink="http://www.w3.org/1999/xlink">
<g><path style="opacity:0.016" fill="#ff433e" d="M 10.5,1.5 C 46.9977,0.335611 83.6644,0.168945 120.5,1C 83.8348,1.49999 47.1682,1.66665 10.5,1.5 Z"/></g>
<g><path style="opacity:0.016" fill="#fe403f" d="M 8.5,1.5 C 9.83333,2.16667 9.83333,2.16667 8.5,1.5 Z"/></g>
<g><path style="opacity:0.999" fill="#e74227" d="M 122.5,3.5 C 124.168,5.34004 125.668,7.34004 127,9.5C 127.5,46.8318 127.667,84.1652 127.5,121.5C 126.662,121.842 126.328,122.508 126.5,123.5C 125.833,123.5 125.5,123.833 125.5,124.5C 124.833,124.5 124.5,124.833 124.5,125.5C 123.833,125.5 123.5,125.833 123.5,126.5C 122.508,126.328 121.842,126.662 121.5,127.5C 83.4571,127.821 45.4571,127.488 7.5,126.5C 6.83333,125.167 5.83333,124.167 4.5,123.5C 4.06795,122.29 3.40128,121.29 2.5,120.5C 2.33335,83.8318 2.50001,47.1652 3,10.5C 3.68979,7.80402 5.18979,5.63735 7.5,4C 26.7709,2.85132 46.1042,2.35132 65.5,2.5C 84.5421,2.5122 103.542,2.84553 122.5,3.5 Z"/></g>
<g><path style="opacity:0.008" fill="#fe8000" d="M 122.5,2.5 C 123.833,3.16667 123.833,3.16667 122.5,2.5 Z"/></g>
<g><path style="opacity:0.008" fill="#fe8000" d="M 126.5,5.5 C 127.833,6.16667 127.833,6.16667 126.5,5.5 Z"/></g>
<g><path style="opacity:0.008" fill="#fe8000" d="M 127.5,7.5 C 128.833,8.16667 128.833,8.16667 127.5,7.5 Z"/></g>
<g><path style="opacity:0.008" fill="#fe8000" d="M 1.5,8.5 C 2.83333,9.16667 2.83333,9.16667 1.5,8.5 Z"/></g>
<g><path style="opacity:0.008" fill="#fe8000" d="M 128.5,9.5 C 129.525,9.89657 129.692,10.5632 129,11.5C 128.536,10.9056 128.369,10.2389 128.5,9.5 Z"/></g>
<g><path style="opacity:0.016" fill="#ff423f" d="M 0.5,10.5 C 1.66437,46.6644 1.83103,82.9977 1,119.5C 0.500014,83.1682 0.333347,46.8349 0.5,10.5 Z"/></g>
<g><path style="opacity:0.008" fill="#fe8000" d="M 128.5,12.5 C 129.664,47.3309 129.831,82.3309 129,117.5C 128.5,82.5016 128.333,47.5016 128.5,12.5 Z"/></g>
<g><path style="opacity:1" fill="#fefdfd" d="M 57.5,99.5 C 50.8333,99.5 44.1667,99.5 37.5,99.5C 37.5,81.8333 37.5,64.1667 37.5,46.5C 33.5,46.5 29.5,46.5 25.5,46.5C 25.5,41.1667 25.5,35.8333 25.5,30.5C 36.1667,30.5 46.8333,30.5 57.5,30.5C 57.5,53.5 57.5,76.5 57.5,99.5 Z"/></g>
<g><path style="opacity:1" fill="#fefdfc" d="M 72.5,30.5 C 79.1667,30.5 85.8333,30.5 92.5,30.5C 92.17,48.008 92.5033,65.3414 93.5,82.5C 97.5,82.5 101.5,82.5 105.5,82.5C 105.5,88.1667 105.5,93.8333 105.5,99.5C 94.5,99.5 83.5,99.5 72.5,99.5C 72.5,76.5 72.5,53.5 72.5,30.5 Z"/></g>
<g><path style="opacity:1" fill="#f29d90" d="M 57.5,99.5 C 57.5,76.5 57.5,53.5 57.5,30.5C 46.8333,30.5 36.1667,30.5 25.5,30.5C 25.5,35.8333 25.5,41.1667 25.5,46.5C 24.5111,41.0247 24.1778,35.358 24.5,29.5C 35.8333,29.5 47.1667,29.5 58.5,29.5C 58.8309,53.006 58.4975,76.3393 57.5,99.5 Z"/></g>
<g><path style="opacity:1" fill="#f19f91" d="M 72.5,30.5 C 79.3134,29.5088 86.3134,29.1755 93.5,29.5C 93.5,47.1667 93.5,64.8333 93.5,82.5C 92.5033,65.3414 92.17,48.008 92.5,30.5C 85.8333,30.5 79.1667,30.5 72.5,30.5 Z"/></g>
<g><path style="opacity:0.016" fill="#ff5933" d="M 128.5,118.5 C 129.525,118.897 129.692,119.563 129,120.5C 128.536,119.906 128.369,119.239 128.5,118.5 Z"/></g>
<g><path style="opacity:0.008" fill="#fe8000" d="M 2.5,120.5 C 1.83333,121.167 1.83333,121.167 2.5,120.5 Z"/></g>
<g><path style="opacity:0.008" fill="#ff6d22" d="M 127.5,121.5 C 128.833,122.167 128.833,122.833 127.5,123.5C 127.5,122.833 127.5,122.167 127.5,121.5 Z"/></g>
<g><path style="opacity:0.008" fill="#fe8000" d="M 4.5,123.5 C 4.63101,124.239 4.46434,124.906 4,125.5C 3.30831,124.563 3.47498,123.897 4.5,123.5 Z"/></g>
<g><path style="opacity:0.008" fill="#fe8000" d="M 126.5,123.5 C 126.833,123.5 127.167,123.5 127.5,123.5C 127.315,124.17 126.981,124.17 126.5,123.5 Z"/></g>
<g><path style="opacity:0.016" fill="#fe403f" d="M 125.5,124.5 C 125.833,124.5 126.167,124.5 126.5,124.5C 126.315,125.17 125.981,125.17 125.5,124.5 Z"/></g>
<g><path style="opacity:0.016" fill="#fe403f" d="M 124.5,125.5 C 124.833,125.5 125.167,125.5 125.5,125.5C 125.315,126.17 124.981,126.17 124.5,125.5 Z"/></g>
<g><path style="opacity:0.008" fill="#fe8000" d="M 7.5,126.5 C 7.5,126.833 7.5,127.167 7.5,127.5C 6.82986,127.019 6.82986,126.685 7.5,126.5 Z"/></g>
<g><path style="opacity:0.008" fill="#fe8000" d="M 123.5,126.5 C 123.833,126.5 124.167,126.5 124.5,126.5C 124.315,127.17 123.981,127.17 123.5,126.5 Z"/></g>
<g><path style="opacity:0.008" fill="#fe8000" d="M 7.5,127.5 C 8.83333,128.167 8.83333,128.167 7.5,127.5 Z"/></g>
<g><path style="opacity:0.008" fill="#fe8000" d="M 121.5,128.5 C 121.5,128.167 121.5,127.833 121.5,127.5C 122.167,127.5 122.833,127.5 123.5,127.5C 123.158,128.338 122.492,128.672 121.5,128.5 Z"/></g>
<g><path style="opacity:0.008" fill="#fe8000" d="M 9.5,129.5 C 10.6009,128.402 11.9343,128.235 13.5,129C 12.2068,129.49 10.8734,129.657 9.5,129.5 Z"/></g>
<g><path style="opacity:0.008" fill="#ff7519" d="M 121.5,128.5 C 120.399,129.598 119.066,129.765 117.5,129C 118.793,128.51 120.127,128.343 121.5,128.5 Z"/></g>
</svg>
