<svg width="30" height="30" viewBox="0 0 30 30" fill="none" xmlns="http://www.w3.org/2000/svg">
<path opacity="0.4" d="M8.38194 16.1132C7.7368 16.1132 7.21454 16.6432 7.21454 17.2979L6.8927 23.0213C6.8927 23.8557 7.55979 24.5312 8.38194 24.5312C9.20409 24.5312 9.86972 23.8557 9.86972 23.0213L9.54934 17.2979C9.54934 16.6432 9.02708 16.1132 8.38194 16.1132Z" fill="white"/>
<path d="M9.97546 4.59181C9.97546 4.59181 9.64045 4.24737 9.43272 4.09741C9.13136 3.8658 8.75978 3.75 8.38967 3.75C7.9742 3.75 7.58799 3.88065 7.27347 4.12711C7.21642 4.18501 6.97357 4.40326 6.77315 4.60666C5.51505 5.79588 3.45674 8.90033 2.82769 10.526C2.72821 10.7725 2.51317 11.3961 2.5 11.7301C2.5 12.0478 2.57022 12.3537 2.71358 12.6432C2.914 13.0054 3.22853 13.2964 3.60011 13.4553C3.85758 13.5577 4.62853 13.7166 4.64316 13.7166C5.48726 13.8769 6.85947 13.9631 8.37504 13.9631C9.81893 13.9631 11.1341 13.8769 11.9913 13.7463C12.006 13.7314 12.9627 13.5726 13.2919 13.3974C13.8917 13.0782 14.2647 12.4546 14.2647 11.788V11.7301C14.2501 11.2951 13.877 10.3805 13.8639 10.3805C13.2348 8.84242 11.276 5.81072 9.97546 4.59181Z" fill="white"/>
<path opacity="0.4" d="M21.6184 13.887C22.2635 13.887 22.7858 13.357 22.7858 12.7022L23.1062 6.97869C23.1062 6.14429 22.4405 5.46875 21.6184 5.46875C20.7962 5.46875 20.1292 6.14429 20.1292 6.97869L20.451 12.7022C20.451 13.357 20.9732 13.887 21.6184 13.887Z" fill="white"/>
<path d="M27.2865 17.3566C27.0861 16.9944 26.7715 16.7048 26.3999 16.5445C26.1425 16.4421 25.3701 16.2832 25.3569 16.2832C24.5128 16.1228 23.1406 16.0367 21.625 16.0367C20.1811 16.0367 18.866 16.1228 18.0087 16.2535C17.9941 16.2683 17.0373 16.4287 16.7082 16.6024C16.1069 16.9216 15.7354 17.5452 15.7354 18.2133V18.2712C15.75 18.7062 16.1216 19.6193 16.1362 19.6193C16.7652 21.1575 18.7226 24.1907 20.0246 25.4082C20.0246 25.4082 20.3596 25.7526 20.5673 25.9011C20.8672 26.1342 21.2388 26.25 21.6119 26.25C22.0259 26.25 22.4106 26.1194 22.7266 25.8729C22.7836 25.815 23.0265 25.5967 23.2269 25.3948C24.4835 24.2041 26.5433 21.0996 27.1709 19.4753C27.2718 19.2288 27.4869 18.6038 27.5001 18.2712C27.5001 17.952 27.4298 17.6461 27.2865 17.3566Z" fill="white"/>
</svg>  