<svg width="33" height="33" viewBox="0 0 33 33" fill="none" xmlns="http://www.w3.org/2000/svg">
<g clip-path="url(#clip0_1381_8)">
<path d="M12.3748 6.18825C12.375 5.02349 12.0465 3.88233 11.4269 2.89603C10.8073 1.90972 9.92184 1.11834 8.87241 0.612897C7.82298 0.107458 6.65218 -0.0915018 5.49468 0.0389022C4.33719 0.169306 3.24001 0.623777 2.32936 1.35004C1.41871 2.0763 0.731572 3.04486 0.346988 4.14429C-0.0375969 5.24373 -0.104007 6.42939 0.155396 7.56489C0.414798 8.70039 0.989477 9.73962 1.81333 10.563C2.63718 11.3864 3.67674 11.9606 4.81244 12.2194V20.7806C3.32926 21.1186 2.0226 21.9911 1.14204 23.2315C0.261472 24.4719 -0.131276 25.9931 0.0388137 27.5047C0.208903 29.0163 0.929909 30.4123 2.06411 31.4259C3.19831 32.4396 4.66621 33 6.18742 33C7.70862 33 9.17652 32.4396 10.3107 31.4259C11.4449 30.4123 12.1659 29.0163 12.336 27.5047C12.5061 25.9931 12.1134 24.4719 11.2328 23.2315C10.3522 21.9911 9.04557 21.1186 7.56239 20.7806V12.2194C8.92836 11.9063 10.1479 11.1395 11.0219 10.0442C11.8959 8.94881 12.3728 7.58955 12.3748 6.18825ZM2.74997 6.18825C2.74997 5.50842 2.95157 4.84387 3.32928 4.27861C3.707 3.71336 4.24385 3.2728 4.87196 3.01264C5.50007 2.75249 6.19123 2.68442 6.85803 2.81704C7.52483 2.94967 8.13732 3.27704 8.61806 3.75774C9.09879 4.23845 9.42618 4.85091 9.55881 5.51767C9.69145 6.18443 9.62337 6.87555 9.3632 7.50362C9.10303 8.1317 8.66244 8.66852 8.09716 9.04621C7.53187 9.4239 6.86728 9.62549 6.18742 9.62549C5.27606 9.62447 4.40233 9.262 3.75791 8.61761C3.11349 7.97323 2.751 7.09955 2.74997 6.18825ZM9.62486 26.8117C9.62486 27.4916 9.42326 28.1561 9.04555 28.7214C8.66783 29.2866 8.13098 29.7272 7.50287 29.9873C6.87476 30.2475 6.1836 30.3156 5.5168 30.1829C4.85 30.0503 4.23751 29.7229 3.75677 29.2422C3.27604 28.7615 2.94865 28.1491 2.81602 27.4823C2.68339 26.8156 2.75146 26.1244 3.01163 25.4964C3.2718 24.8683 3.71239 24.3315 4.27767 23.9538C4.84296 23.5761 5.50755 23.3745 6.18742 23.3745C7.09877 23.3755 7.9725 23.738 8.61692 24.3824C9.26134 25.0268 9.62383 25.9004 9.62486 26.8117ZM28.1875 20.7806L28.1872 15.1047C28.1906 13.8404 27.9433 12.5879 27.4594 11.4198C26.9755 10.2517 26.2648 9.19121 25.3683 8.29961L21.1943 4.1259H24.7496C25.1143 4.1259 25.464 3.98104 25.7219 3.7232C25.9797 3.46535 26.1246 3.11564 26.1246 2.751C26.1246 2.38635 25.9797 2.03664 25.7219 1.7788C25.464 1.52095 25.1143 1.3761 24.7496 1.3761H17.8747C17.8696 1.3761 17.8647 1.37681 17.8595 1.37686C17.8194 1.3773 17.7794 1.379 17.7395 1.38293C17.7174 1.38509 17.6959 1.38917 17.6741 1.39237C17.6515 1.39568 17.6288 1.39825 17.6064 1.40268C17.5823 1.40745 17.5588 1.41404 17.5352 1.42006C17.5155 1.42509 17.4956 1.42939 17.476 1.43529C17.4529 1.44227 17.4307 1.45088 17.4081 1.45902C17.3883 1.46615 17.3684 1.47265 17.3489 1.48072C17.3281 1.48934 17.3082 1.49942 17.2879 1.509C17.2675 1.51867 17.2468 1.52775 17.2268 1.53847C17.2076 1.54873 17.1894 1.56039 17.1709 1.5715C17.1509 1.58341 17.1307 1.59467 17.1113 1.60768C17.0911 1.62114 17.0723 1.63613 17.0529 1.6506C17.0363 1.66302 17.0192 1.67456 17.0031 1.68782C16.971 1.7141 16.9405 1.74201 16.911 1.77102C16.9083 1.77376 16.9052 1.77604 16.9024 1.77881C16.8989 1.78233 16.8959 1.78623 16.8925 1.78979C16.8644 1.81851 16.8372 1.84812 16.8117 1.87922C16.7974 1.8965 16.785 1.9147 16.7718 1.9325C16.7583 1.95067 16.7442 1.96836 16.7315 1.98721C16.7177 2.00795 16.7056 2.02947 16.6929 2.05078C16.6827 2.06797 16.6719 2.08474 16.6625 2.1024C16.6508 2.12404 16.641 2.14628 16.6307 2.1684C16.6219 2.18703 16.6125 2.20529 16.6046 2.22437C16.5958 2.24579 16.5886 2.26766 16.5808 2.28942C16.5735 2.31002 16.5655 2.33032 16.5592 2.35137C16.5525 2.37333 16.5476 2.39564 16.5421 2.41784C16.5367 2.43915 16.5308 2.46016 16.5264 2.48185C16.5213 2.50778 16.5182 2.53397 16.5145 2.56012C16.512 2.57842 16.5085 2.59638 16.5066 2.61489C16.5021 2.66044 16.4998 2.7061 16.4997 2.75188V9.62549C16.4997 9.99014 16.6446 10.3399 16.9025 10.5977C17.1603 10.8555 17.5101 11.0004 17.8747 11.0004C18.2394 11.0004 18.5891 10.8555 18.847 10.5977C19.1048 10.3399 19.2497 9.99014 19.2497 9.62549V6.07031L23.4236 10.244C24.064 10.8808 24.5717 11.6383 24.9174 12.4727C25.263 13.3071 25.4397 14.2017 25.4373 15.1048L25.4375 20.7806C23.9543 21.1186 22.6477 21.9912 21.7671 23.2316C20.8866 24.4719 20.4939 25.9932 20.664 27.5048C20.8341 29.0164 21.5551 30.4123 22.6893 31.426C23.8235 32.4397 25.2914 33 26.8126 33C28.3339 33 29.8017 32.4396 30.9359 31.4259C32.0701 30.4122 32.7911 29.0162 32.9612 27.5047C33.1313 25.9931 32.7385 24.4718 31.8579 23.2314C30.9773 21.9911 29.6707 21.1186 28.1875 20.7806ZM26.8126 30.249C26.1327 30.249 25.4681 30.0474 24.9028 29.6697C24.3376 29.292 23.897 28.7552 23.6368 28.1271C23.3766 27.499 23.3086 26.8079 23.4412 26.1412C23.5738 25.4744 23.9012 24.8619 24.3819 24.3812C24.8627 23.9005 25.4752 23.5732 26.142 23.4405C26.8088 23.3079 27.4999 23.376 28.128 23.6361C28.7562 23.8963 29.293 24.3369 29.6707 24.9021C30.0484 25.4674 30.25 26.1319 30.25 26.8117C30.249 27.723 29.8865 28.5967 29.2421 29.2411C28.5977 29.8855 27.7239 30.248 26.8126 30.249Z" fill="url(#paint0_linear_1381_8)"/>
</g>
<defs>
<linearGradient id="paint0_linear_1381_8" x1="-6" y1="5.5" x2="39.5" y2="29" gradientUnits="userSpaceOnUse">
<stop stop-color="#F8F8F8"/>
<stop offset="1" stop-color="#484849"/>
</linearGradient>
<clipPath id="clip0_1381_8">
<rect width="33" height="33" fill="white"/>
</clipPath>
</defs>
</svg>
