<svg id="Flat" fill="#FFFFFF" xmlns="http://www.w3.org/2000/svg" viewBox="0 0 256 256">
  <path d="M103.99951,68a36,36,0,1,0-44,35.0929v49.8142a36,36,0,1,0,16,0V103.0929A36.05516,36.05516,0,0,0,103.99951,68Zm-56,0a20,20,0,1,1,20,20A20.0226,20.0226,0,0,1,47.99951,68Zm40,120a20,20,0,1,1-20-20A20.0226,20.0226,0,0,1,87.99951,188ZM196.002,152.907l-.00146-33.02563a55.63508,55.63508,0,0,0-16.40137-39.59619L155.31348,56h20.686a8,8,0,0,0,0-16h-40c-.02978,0-.05859.00415-.08838.00446-.2334.00256-.46631.01245-.69824.03527-.12891.01258-.25391.03632-.38086.05494-.13135.01928-.26318.03424-.39355.06-.14014.02778-.27686.06611-.41455.10114-.11475.02924-.23047.05426-.34424.08862-.13428.04059-.26367.0907-.395.13806-.11524.04151-.231.07929-.34473.12629-.12109.05011-.23681.10876-.35449.16455-.11914.05621-.23926.10907-.356.17144-.11133.0597-.21728.12757-.32519.1922-.11621.06928-.23389.13483-.34668.21051-.11719.07831-.227.16553-.33985.24976-.09668.07227-.1958.1394-.28955.21655-.18652.1529-.36426.31531-.53564.48413-.01612.01593-.03418.02918-.05029.04529-.02051.02051-.0376.04321-.05762.06391-.16358.16711-.32178.33941-.47022.52032-.083.10059-.15527.20648-.23193.31006-.07861.10571-.16064.20862-.23438.3183-.08056.12072-.15087.24591-.2246.36993-.05958.1-.12208.19757-.17725.30036-.06787.12591-.125.25531-.18506.384-.05078.1084-.10547.21466-.15137.32568-.05127.12463-.09326.25189-.13867.37848-.04248.11987-.08887.238-.126.36047-.03857.12775-.06738.25757-.09912.38678-.03125.124-.06591.24622-.0913.37244-.02979.15088-.04786.30328-.06934.45544-.01465.10645-.03516.21094-.0459.31867q-.03955.39752-.04.79706V88a8,8,0,0,0,16,0V67.31378l24.28516,24.28485a39.73874,39.73874,0,0,1,11.71582,28.28321l.00146,33.02533a36.00007,36.00007,0,1,0,16-.00019ZM188.00244,208a20,20,0,1,1,20-20A20.0226,20.0226,0,0,1,188.00244,208Z"/>
</svg>
