<svg width="24" height="24" viewBox="0 0 24 24" fill="none" xmlns="http://www.w3.org/2000/svg">
<path d="M6.60002 20.3999V14.9999C6.60002 14.3372 7.13728 13.7999 7.80002 13.7999H16.2C16.8628 13.7999 17.4 14.3372 17.4 14.9999V20.9999M15 7.1999L7.80002 7.1999C7.13728 7.1999 6.60002 6.66264 6.60002 5.9999L6.60002 2.3999M20.9975 6.59737L17.4026 3.00243C17.0168 2.61664 16.4935 2.39991 15.9479 2.3999H4.45717C3.32102 2.3999 2.40002 3.3209 2.40002 4.45705V19.5428C2.40002 20.6789 3.32102 21.5999 4.45717 21.5999H19.5429C20.679 21.5999 21.6 20.6789 21.6 19.5428V8.05199C21.6 7.5064 21.3833 6.98316 20.9975 6.59737Z" stroke="white" stroke-width="2" stroke-linecap="round"/>
</svg>
