<svg width="18" height="18" viewBox="0 0 18 18" fill="none" xmlns="http://www.w3.org/2000/svg">
<path d="M9 12.75C11.0711 12.75 12.75 11.0711 12.75 9C12.75 6.92893 11.0711 5.25 9 5.25C6.92893 5.25 5.25 6.92893 5.25 9C5.25 11.0711 6.92893 12.75 9 12.75Z" stroke="white" stroke-width="1.25" stroke-linecap="round" stroke-linejoin="round"/>
<path d="M13.3516 4.08594C13.5495 4.26823 13.737 4.45573 13.9141 4.64844L16.0469 4.95312C16.3944 5.55665 16.6622 6.20265 16.8437 6.875L15.5469 8.60156C15.5469 8.60156 15.5703 9.13281 15.5469 9.39844L16.8437 11.125C16.6631 11.7976 16.3952 12.4437 16.0469 13.0469L13.9141 13.3516C13.9141 13.3516 13.5469 13.7344 13.3516 13.9141L13.0469 16.0469C12.4434 16.3944 11.7974 16.6622 11.125 16.8437L9.39844 15.5469C9.13333 15.5703 8.86667 15.5703 8.60156 15.5469L6.875 16.8437C6.20236 16.6631 5.55625 16.3952 4.95312 16.0469L4.64844 13.9141C4.45573 13.7318 4.26823 13.5443 4.08594 13.3516L1.95312 13.0469C1.60561 12.4434 1.33776 11.7974 1.15625 11.125L2.45313 9.39844C2.45313 9.39844 2.42969 8.86719 2.45313 8.60156L1.15625 6.875C1.33692 6.20236 1.60481 5.55625 1.95312 4.95312L4.08594 4.64844C4.26823 4.45573 4.45573 4.26823 4.64844 4.08594L4.95312 1.95312C5.55665 1.60561 6.20265 1.33776 6.875 1.15625L8.60156 2.45313C8.86667 2.42968 9.13333 2.42968 9.39844 2.45313L11.125 1.15625C11.7976 1.33692 12.4437 1.60481 13.0469 1.95312L13.3516 4.08594Z" stroke="white" stroke-width="1.25" stroke-linecap="round" stroke-linejoin="round"/>
</svg>
