<svg width="24" height="24" viewBox="0 0 24 24" fill="none" xmlns="http://www.w3.org/2000/svg">
<path opacity="0.4" d="M10.0833 15.958H3.50777C2.67555 15.958 2 16.6217 2 17.4393C2 18.2558 2.67555 18.9206 3.50777 18.9206H10.0833C10.9155 18.9206 11.5911 18.2558 11.5911 17.4393C11.5911 16.6217 10.9155 15.958 10.0833 15.958Z" fill="white"/>
<path opacity="0.4" d="M22 6.37856C22 5.56203 21.3244 4.89832 20.4933 4.89832H13.9178C13.0856 4.89832 12.4101 5.56203 12.4101 6.37856C12.4101 7.19618 13.0856 7.85989 13.9178 7.85989H20.4933C21.3244 7.85989 22 7.19618 22 6.37856Z" fill="white"/>
<path d="M8.87774 6.37856C8.87774 8.24523 7.33886 9.75821 5.43887 9.75821C3.53999 9.75821 2 8.24523 2 6.37856C2 4.51298 3.53999 3 5.43887 3C7.33886 3 8.87774 4.51298 8.87774 6.37856Z" fill="white"/>
<path d="M22 17.3992C22 19.2648 20.4611 20.7778 18.5611 20.7778C16.6623 20.7778 15.1223 19.2648 15.1223 17.3992C15.1223 15.5325 16.6623 14.0196 18.5611 14.0196C20.4611 14.0196 22 15.5325 22 17.3992Z" fill="white"/>
</svg>
