<svg width="17" height="17" viewBox="0 0 17 17" fill="none" xmlns="http://www.w3.org/2000/svg">
<path d="M5.50667 1.62167C5.50667 5.115 8.5 3.005 9.33333 6.41667C9.33333 7.10667 10.1667 7.66667 11 7.66667C11.8333 7.66667 12.6667 7.10667 12.6667 6.41667C12.6667 6.08515 12.7984 5.7672 13.0328 5.53278C13.2672 5.29836 13.5851 5.16667 13.9167 5.16667H15.1667M1.81667 5.55917C5.16667 7.4325 3.29667 9.0725 5.88167 10.2633C8.58417 11.5083 7.60083 16 7.60083 16M15.4058 11H13.5C12.837 11 12.2011 11.2634 11.7322 11.7322C11.2634 12.2011 11 12.837 11 13.5V15.1667M16 8.5C16 9.48491 15.806 10.4602 15.4291 11.3701C15.0522 12.2801 14.4997 13.1069 13.8033 13.8033C13.1069 14.4997 12.2801 15.0522 11.3701 15.4291C10.4602 15.806 9.48491 16 8.5 16C7.51509 16 6.53982 15.806 5.62987 15.4291C4.71993 15.0522 3.89314 14.4997 3.1967 13.8033C2.50026 13.1069 1.94781 12.2801 1.5709 11.3701C1.19399 10.4602 1 9.48491 1 8.5C1 6.51088 1.79018 4.60322 3.1967 3.1967C4.60322 1.79018 6.51088 1 8.5 1C10.4891 1 12.3968 1.79018 13.8033 3.1967C15.2098 4.60322 16 6.51088 16 8.5Z" stroke="url(#paint0_linear_1409_6)" stroke-linecap="round" stroke-linejoin="round"/>
<defs>
<linearGradient id="paint0_linear_1409_6" x1="1" y1="1" x2="12" y2="16" gradientUnits="userSpaceOnUse">
<stop stop-color="#F8F8F8"/>
<stop offset="1" stop-color="#484849"/>
</linearGradient>
</defs>
</svg>
