<svg id="Layer_1" data-name="Layer 1" xmlns="http://www.w3.org/2000/svg" viewBox="0 0 633.99 120.31"><defs><style>.cls-1{fill:#fff;}</style></defs><path class="cls-1" d="M196.74,355.68l-30.22,71.5H150.89l-11-26.12-11,26.12H113.42L83,355.68H98.55l23.16,55.77L133,384.66l-12.11-29h14.21l23.07,55.87,23.17-55.87Z" transform="translate(-83.01 -339.85)"/><path class="cls-1" d="M191,403.35c0-13.92,10.39-24.79,24.88-24.79s24.88,10.87,24.88,24.79-10.49,24.78-24.88,24.78S191,417.17,191,403.35Zm36,0c0-7.06-4.57-12.68-11.15-12.68-6.77,0-11.16,5.62-11.16,12.68s4.39,12.58,11.16,12.58C222.49,415.93,227.06,410.4,227.06,403.35Z" transform="translate(-83.01 -339.85)"/><path class="cls-1" d="M287.79,382.66,282,392.86a11.79,11.79,0,0,0-7.44-2.19c-5.72,0-11.25,4.76-11.25,12.68v23.83H249.37V379.51h12.49l.76,7.34c3.25-5.05,8.11-8.29,13.64-8.29S284.93,379.89,287.79,382.66Z" transform="translate(-83.01 -339.85)"/><path class="cls-1" d="M337.18,355.68v71.5l-12.3.1-.76-5a18.39,18.39,0,0,1-13.63,5.81c-13.06,0-22.12-10.86-22.12-24.78s9.06-24.79,22.12-24.79a18.13,18.13,0,0,1,13,5.15v-28ZM323.45,408.4V398.29c-1.71-4.48-5.62-7.62-10.2-7.62-6.77,0-11.15,5.62-11.15,12.68s4.38,12.58,11.15,12.58C317.83,415.93,321.74,412.88,323.45,408.4Z" transform="translate(-83.01 -339.85)"/><path class="cls-1" d="M358.73,363.4v24.12h26.88v7.82H358.73v31.84h-8.68v-71.5h39.57v7.72Z" transform="translate(-83.01 -339.85)"/><path class="cls-1" d="M400.68,365.21a5.58,5.58,0,1,1,11.15,0,5.58,5.58,0,0,1-11.15,0Zm1.33,14.3h8.39v47.67H402Z" transform="translate(-83.01 -339.85)"/><path class="cls-1" d="M468.56,397.05v30.13h-8.49V398c0-6.87-5.34-12-12.39-12a12.59,12.59,0,0,0-12.87,12.39v28.79h-8.39V379.51h7.72l.38,6.29A19.82,19.82,0,0,1,450,378.56C460.64,378.56,468.56,386.28,468.56,397.05Z" transform="translate(-83.01 -339.85)"/><path class="cls-1" d="M524.9,355.68v71.5h-7.53l-.38-6.86a19.69,19.69,0,0,1-15.92,7.81c-13.44,0-21.93-11-21.93-24.78s8.49-24.79,21.93-24.79A19.74,19.74,0,0,1,516.7,386V355.68Zm-8.2,52.82V398.2c-1.81-7.06-7.43-12.2-14.3-12.2-9.34,0-15,7.72-15,17.35s5.63,17.25,15,17.25C509.27,420.6,514.89,415.55,516.7,408.5Z" transform="translate(-83.01 -339.85)"/><path class="cls-1" d="M580.1,406.11h-36c.85,8.77,5.91,14.68,14.77,14.68,5.72,0,9.35-2,13.16-7.91l5.91,4.1c-3.91,7-10.39,11.15-19.35,11.15-14.11,0-22.69-10.48-22.69-24.69s8.67-24.88,22.69-24.88c13.63,0,21.64,10.3,21.64,24.79A26.4,26.4,0,0,1,580.1,406.11Zm-35.84-6.58h28.31c-.86-8.39-5.72-13.73-13.82-13.73C550.45,385.8,545.5,391.33,544.26,399.53Z" transform="translate(-83.01 -339.85)"/><path class="cls-1" d="M623.77,381.42l-4.1,6.1A13.78,13.78,0,0,0,613,386c-7,0-13.45,6-13.45,14.49v26.69h-8.39V379.51h7.73l.38,7.25c3.43-5,8.58-8.2,14.11-8.2C618.43,378.56,621.1,379.42,623.77,381.42Z" transform="translate(-83.01 -339.85)"/><path class="cls-1" d="M695.28,460.15c-9.94,0-21.88-11.73-33-27.64-8.95,9.55-17.7,15.91-24.46,15.91-17.7,0-16.51-12.13-13.72-12.13,7.55,0,17.7-8.55,27.84-20.28-13.92-23.86-24.26-51.11-24.26-62.84,0-4,25.05-20.28,25.05-9.94,0,2.58,7.36,24.46,17.9,47.72,11.93-18.49,20.88-36.59,20.88-42.35,0-8,14.71,4.57,14.71,10.74,0,8.35-11.73,30.82-26.05,51.3,11.14,21.08,24.27,39.17,35.8,39.17C720.93,449.81,707,460.15,695.28,460.15Z" transform="translate(-83.01 -339.85)"/></svg>